<?xml version="1.0" encoding="UTF-8" standalone="no"?>
<!-- Created with Inkscape (http://www.inkscape.org/) -->

<svg
   width="25mm"
   height="25mm"
   viewBox="-2 -3 25 25"
   version="1.1"
   id="svg1"
   xml:space="preserve"
   inkscape:export-filename="charm.svg"
   inkscape:export-xdpi="96"
   inkscape:export-ydpi="96"
   xmlns:inkscape="http://www.inkscape.org/namespaces/inkscape"
   xmlns:sodipodi="http://sodipodi.sourceforge.net/DTD/sodipodi-0.dtd"
   xmlns="http://www.w3.org/2000/svg"
   xmlns:svg="http://www.w3.org/2000/svg"><sodipodi:namedview
     id="namedview1"
     pagecolor="#ffffff"
     bordercolor="#000000"
     borderopacity="0.25"
     inkscape:showpageshadow="2"
     inkscape:pageopacity="0.0"
     inkscape:pagecheckerboard="0"
     inkscape:deskcolor="#d1d1d1"
     inkscape:document-units="mm"><inkscape:page
       x="0"
       y="0"
       width="25"
       height="25"
       id="page2"
       margin="0"
       bleed="0" /></sodipodi:namedview><defs
     id="defs1" /><g
     inkscape:label="Layer 1"
     inkscape:groupmode="layer"
     id="layer1"
     transform="translate(-92.454706,-139.18891)"><path
       style="fill:#000000"
       d="m 104.43564,157.51012 c -0.1592,-0.0264 -0.1509,0.0686 -0.098,-1.12231 0.0846,-1.90328 0.13586,-3.63421 0.18655,-6.29285 0.0212,-1.11426 0.0296,-5.33042 0.013,-6.57225 -0.0196,-1.4666 -0.046,-2.69561 -0.0787,-3.66823 -0.007,-0.22238 -0.0105,-0.40742 -0.007,-0.4112 0.0883,-0.0883 0.91768,-0.12944 1.32865,-0.0659 1.05693,0.16331 1.75135,1.99407 1.88056,4.95788 0.017,0.38995 0.009,1.54489 -0.0128,1.82909 -0.10227,1.33845 -0.32686,2.211 -0.71902,2.79344 -0.0978,0.14519 -0.0961,0.11352 -0.0116,0.22514 0.4359,0.57603 0.5737,1.63221 0.46395,3.55578 -0.072,1.26206 -0.0583,1.53669 0.088,1.76742 0.0704,0.11096 0.0179,1.06834 -0.12094,2.20557 -0.0664,0.54417 -0.0571,0.51873 -0.21046,0.57212 -0.50167,0.17461 -0.70122,-0.21591 -0.70117,-1.37222 2e-5,-0.41914 0.003,-0.48845 0.0741,-1.524 0.26053,-3.81723 0.0526,-5.12997 -0.79587,-5.02397 -0.34195,0.0427 -0.33913,0.0197 -0.44923,3.67142 -0.0615,2.03871 -0.11484,3.74012 -0.12841,4.09381 -0.008,0.20142 -0.0108,0.22249 -0.0352,0.24558 -0.10608,0.10034 -0.45364,0.1711 -0.66664,0.13572 z m 1.73438,-9.994 c 0.23165,-0.0313 0.37818,-0.15271 0.45508,-0.37691 0.22524,-0.65669 0.14568,-4.47277 -0.11074,-5.31195 -0.10189,-0.33345 -0.36897,-0.48727 -0.84824,-0.48851 -0.47408,-0.001 -0.49054,0.0927 -0.48599,2.77451 0.005,2.79468 0.0222,3.0384 0.23257,3.24879 0.12774,0.12774 0.45691,0.19471 0.75732,0.15407 z m -5.43013,9.88069 c -0.15345,-0.0332 -0.2968,-0.0888 -0.39056,-0.15144 -0.12795,-0.0855 -0.11706,-0.0509 -0.10432,-0.33073 0.16651,-3.65753 0.46824,-7.5384 1.03332,-13.29033 0.15671,-1.59524 0.41176,-4.16153 0.41985,-4.22465 0.0102,-0.0792 0.14639,-0.14141 0.4254,-0.19434 0.20464,-0.0388 0.6805,-0.004 0.73861,0.0542 0.005,0.005 0.0267,0.3178 0.0478,0.6948 0.13513,2.40799 0.24676,4.0902 0.59706,8.99761 0.2922,4.09343 0.41543,5.93838 0.51649,7.7326 0.0353,0.62696 0.0353,0.62696 -4.2e-4,0.65545 -0.15022,0.11978 -0.74139,0.0795 -0.90414,-0.0616 -0.0458,-0.0397 -0.0458,-0.0397 -0.0637,-0.45878 -0.0746,-1.74498 -0.17853,-3.56216 -0.26016,-4.5466 -0.0854,-1.02996 -0.12957,-1.09641 -0.72983,-1.09821 -0.46321,-0.001 -0.56722,0.0965 -0.63404,0.59656 -0.0799,0.59821 -0.21118,3.04214 -0.26089,4.85775 -0.0197,0.71926 -0.0221,0.75294 -0.0549,0.77048 -0.0499,0.0267 -0.24625,0.0252 -0.37565,-0.003 z m 1.81473,-7.99816 c 0.30707,-0.0999 0.31567,-0.1981 0.18378,-2.09769 -0.0917,-1.32021 -0.17225,-2.51263 -0.23431,-3.4671 -0.11504,-1.76923 -0.14554,-1.9864 -0.2683,-1.91053 -0.1102,0.0681 -0.22878,1.13217 -0.60141,5.39668 -0.17052,1.95151 -0.15939,2.03022 0.29794,2.10716 0.10404,0.0175 0.54257,-0.003 0.6223,-0.0285 z m -3.142223,7.90885 c -0.07627,-0.0134 -0.13995,-0.0258 -0.141513,-0.0275 -0.009,-0.01 -0.07949,-1.67788 -0.113128,-2.67649 -0.03648,-1.08305 -0.05161,-1.70697 -0.08301,-3.42265 -0.0445,-2.43154 -0.05279,-2.45218 -0.984177,-2.4504 -0.817472,0.002 -0.942031,0.10261 -0.983449,0.79784 -0.08085,1.35723 0.10545,4.9032 0.365406,6.95481 0.02678,0.21136 0.03046,0.20276 -0.08681,0.20293 -0.147476,2.1e-4 -0.610178,-0.0845 -0.653015,-0.1195 -0.01754,-0.0143 -0.03053,-0.13452 -0.12157,-1.12483 -0.436478,-4.7479 -0.396459,-9.38419 0.121242,-14.0462 0.07653,-0.68921 0.167621,-1.46422 0.177038,-1.50633 0.01191,-0.0533 0.730898,-0.30463 0.763401,-0.26688 7.4e-4,8.5e-4 -0.02327,0.19301 -0.05336,0.42701 -0.358385,2.78708 -0.579095,6.14724 -0.442767,6.74079 0.0659,0.28691 0.235846,0.35828 0.812283,0.34111 0.668926,-0.0199 0.896663,-0.1194 0.963275,-0.42075 0.05502,-0.24892 0.07002,-0.49651 0.154643,-2.5527 0.05705,-1.38616 0.123332,-2.68169 0.190712,-3.72745 0.01733,-0.26893 0.03756,-0.58611 0.04496,-0.70485 0.01714,-0.27502 0.01193,-0.26353 0.134449,-0.29639 0.211078,-0.0566 0.652873,-0.0992 0.680383,-0.0656 0.003,0.003 -0.008,0.18351 -0.0239,0.40005 -0.403455,5.45759 -0.466039,11.4654 -0.175954,16.891 0.04013,0.75064 0.03948,0.66172 0.0049,0.67096 -0.06627,0.0177 -0.411231,0.006 -0.550077,-0.018 z m 8.266983,-0.22437 c 0.0279,-0.16153 0.18312,-1.62291 0.24656,-2.32092 0.44923,-4.94265 0.44278,-9.94156 -0.0188,-14.57325 -0.0171,-0.17114 -0.0311,-0.31475 -0.0311,-0.31914 -0.001,-0.10054 0.94853,-0.003 1.03865,0.10655 0.0351,0.0427 0.47576,2.49219 0.68715,3.81939 0.42121,2.64448 0.70844,5.36213 0.7886,7.46125 0.0253,0.66326 0.0416,0.79871 0.0978,0.81611 0.0547,0.0169 0.13519,-0.32854 0.34556,-1.48286 0.65698,-3.60505 0.86914,-6.89201 0.62202,-9.63688 -0.0321,-0.35659 -0.0397,-0.35184 0.31742,-0.19883 0.50833,0.21779 0.54485,0.26108 0.65335,0.77426 0.86634,4.09765 0.93563,8.2887 0.20456,12.37375 -0.12521,0.69967 -0.29062,1.50896 -0.31433,1.5379 -0.0826,0.10081 -0.79758,0.43567 -0.8399,0.39335 -0.004,-0.004 0.0101,-0.0805 0.0304,-0.1708 0.7248,-3.21575 0.99822,-6.77073 0.76817,-9.98765 -0.0332,-0.46436 -0.0633,-0.6223 -0.11861,-0.6223 -0.0537,0 -0.0666,0.0716 -0.10247,0.56515 -0.2185,3.00991 -0.77556,6.15287 -1.80866,10.20445 -0.0955,0.37465 -0.0955,0.37465 -0.15002,0.42227 -0.18606,0.16259 -0.55496,0.23202 -0.53718,0.10109 0.0109,-0.0803 0.0436,-0.56337 0.0633,-0.93611 0.15673,-2.95852 -0.01,-6.20859 -0.50835,-9.91235 -0.10482,-0.77892 -0.14731,-0.98302 -0.21183,-1.01755 -0.068,-0.0364 -0.0792,0.10143 -0.0609,0.75085 0.10065,3.57444 -0.0607,7.58311 -0.44491,11.05535 -0.0796,0.71914 -0.0651,0.64833 -0.14068,0.68665 -0.22697,0.11501 -0.58863,0.18427 -0.57586,0.11027 z m -12.509812,-0.74759 c -1.348476,-0.1784 -2.194004,-1.81487 -2.558346,-4.95153 -0.594977,-5.12222 0.567672,-10.34403 2.44852,-10.99705 1.028425,-0.35707 1.127138,0.0264 0.947727,3.68185 -0.01748,0.35623 -0.04574,0.93345 -0.0628,1.2827 -0.03069,0.62841 -0.03131,0.63524 -0.06003,0.65856 -0.107853,0.0875 -0.331738,0.14954 -0.549969,0.1523 -0.196569,0.002 -0.188783,0.009 -0.178984,-0.14891 0.0044,-0.0707 0.01946,-0.31429 0.0335,-0.5413 0.01404,-0.22702 0.04518,-0.69565 0.06921,-1.0414 0.10591,-1.52379 0.09922,-1.72448 -0.06291,-1.88638 -0.121416,-0.12125 -0.311944,-0.12789 -0.647848,-0.0226 -0.550497,0.17261 -0.732761,0.50648 -0.92772,1.69939 -0.412042,2.52117 -0.440144,5.99287 -0.0689,8.5116 0.175803,1.19274 0.334092,1.49454 0.854729,1.62966 0.709486,0.18413 0.731562,0.11175 0.592713,-1.94341 -0.07944,-1.17578 -0.150117,-2.43256 -0.137514,-2.44517 0.10056,-0.10056 0.755438,-0.0608 0.848669,0.0516 0.009,0.0108 0.02028,0.24097 0.03225,0.65583 0.01015,0.35156 0.03268,1.06783 0.05006,1.59171 0.119745,3.60828 0.0368,4.14974 -0.622362,4.06253 z"
       id="path4" /></g></svg>
