<?xml version="1.0" encoding="UTF-8" standalone="no"?>
<!-- Created with Inkscape (http://www.inkscape.org/) -->

<svg
   width="25mm"
   height="25mm"
   viewBox="-2 -3 25 25"
   version="1.1"
   id="svg1"
   xml:space="preserve"
   inkscape:export-filename="speed.svg"
   inkscape:export-xdpi="96"
   inkscape:export-ydpi="96"
   xmlns:inkscape="http://www.inkscape.org/namespaces/inkscape"
   xmlns:sodipodi="http://sodipodi.sourceforge.net/DTD/sodipodi-0.dtd"
   xmlns="http://www.w3.org/2000/svg"
   xmlns:svg="http://www.w3.org/2000/svg"><sodipodi:namedview
     id="namedview1"
     pagecolor="#ffffff"
     bordercolor="#000000"
     borderopacity="0.25"
     inkscape:showpageshadow="2"
     inkscape:pageopacity="0.0"
     inkscape:pagecheckerboard="0"
     inkscape:deskcolor="#d1d1d1"
     inkscape:document-units="mm"><inkscape:page
       x="0"
       y="0"
       width="25"
       height="25"
       id="page2"
       margin="0"
       bleed="0" /></sodipodi:namedview><defs
     id="defs1" /><g
     inkscape:label="Layer 1"
     inkscape:groupmode="layer"
     id="layer1"
     transform="translate(-92.454706,-139.18891)"><path
       style="fill:#000000"
       d="m 101.9229,157.78812 c -0.81392,-0.21868 -1.54666,-2.22631 -1.73308,-4.74843 -0.13229,-1.78974 -0.16809,-3.45779 -0.1149,-5.35305 0.003,-0.10128 0.008,-0.32703 0.0125,-0.50165 0.01,-0.41374 0.0158,-0.61558 0.0386,-1.2446 0.0104,-0.28639 0.022,-0.63214 0.0258,-0.76835 0.01,-0.34851 0.0549,-1.31569 0.0645,-1.3843 0.0429,-0.30614 0.55772,-0.41383 0.66791,-0.1397 0.0156,0.0389 0.0128,0.16291 -0.0227,0.9906 -0.052,1.21188 -0.0542,1.26797 -0.0691,1.7907 -0.007,0.24098 -0.0179,0.59245 -0.0246,0.78105 -0.007,0.18859 -0.016,0.4972 -0.0207,0.6858 -0.005,0.18859 -0.0128,0.51435 -0.0181,0.7239 -0.0237,0.94158 0.004,2.93474 0.0513,3.7465 0.12439,2.11833 0.5846,3.26082 1.31398,3.26201 0.50661,8.3e-4 0.91782,-0.56657 1.22274,-1.68721 0.0387,-0.14224 0.0451,-0.78597 0.0152,-1.5367 -0.0334,-0.8407 -0.0396,-1.21862 -0.0465,-2.86164 -0.007,-1.70257 0.004,-2.95292 0.034,-3.75506 0.007,-0.18161 0.0183,-0.50165 0.0257,-0.7112 0.0686,-1.95656 0.0684,-1.95335 0.14152,-2.03267 0.14231,-0.15438 0.42811,-0.16219 0.54873,-0.015 0.0805,0.0983 0.0786,-0.0116 0.0216,1.22217 -0.006,0.1397 -0.0181,0.43688 -0.0258,0.6604 -0.008,0.22352 -0.0195,0.53784 -0.0261,0.6985 -0.007,0.16065 -0.0179,0.55499 -0.0251,0.8763 -0.007,0.32131 -0.0186,0.80994 -0.0255,1.08585 -0.0166,0.66866 -0.0151,3.25151 0.002,3.90525 0.008,0.28638 0.0151,1.09791 0.0166,1.8034 0.002,0.9085 0.007,1.31975 0.0181,1.4097 0.13604,1.1254 0.60217,1.24952 0.94007,0.2503 0.18727,-0.55375 0.28566,-1.11841 0.24262,-1.39226 -0.0391,-0.24896 -0.0804,-0.61151 -0.128,-1.12447 -0.0882,-0.95093 -0.0966,-2.52743 -0.0186,-3.50572 0.0103,-0.12922 0.0247,-0.30925 0.0319,-0.40005 0.0165,-0.2064 0.0574,-0.59057 0.0825,-0.7747 0.0105,-0.0768 0.0245,-0.18542 0.0313,-0.2413 0.0755,-0.62539 0.29677,-1.71666 0.4467,-2.20345 0.16675,-0.54138 0.23574,-0.73818 0.39177,-1.1176 1.14577,-2.78619 2.77455,-1.28683 2.75481,2.53592 -0.002,0.48473 -0.0175,0.53767 -0.18105,0.6376 -0.37651,0.23007 -0.54456,0.12497 -0.56652,-0.35429 -0.0608,-1.32796 -0.43904,-2.04801 -0.98814,-1.88123 -0.48911,0.14857 -1.00007,1.29253 -1.17786,2.63705 -0.005,0.0349 -0.0165,0.10922 -0.0263,0.1651 -0.0369,0.20869 -0.0957,0.75703 -0.11929,1.11125 -0.008,0.11525 -0.0196,0.28384 -0.0266,0.37465 -0.10238,1.33069 0.0406,3.14042 0.33565,4.24815 0.59853,2.24717 1.81447,2.11908 2.70242,-0.28469 0.0388,-0.10504 0.0529,-0.12263 0.12349,-0.15367 0.0857,-0.0377 0.13499,-7.4e-4 0.17385,0.13024 0.0206,0.0695 0.0708,0.24483 0.0936,0.32717 0.17051,0.61471 0.16934,0.60807 0.13525,0.76835 -0.0717,0.33713 -0.53683,1.44792 -0.77905,1.86055 -0.95688,1.63008 -1.96019,1.52364 -2.68374,-0.2847 -0.1176,-0.29392 -0.25556,-0.34448 -0.32191,-0.11797 -0.27935,0.95368 -0.82215,1.61562 -1.22741,1.49683 -0.26216,-0.0768 -0.54945,-0.5973 -0.74032,-1.34115 -0.0481,-0.18731 -0.0631,-0.20326 -0.16696,-0.1771 -0.0792,0.0199 -0.0838,0.0294 -0.15826,0.32817 -0.29247,1.17331 -0.7235,1.72054 -1.24486,1.58045 z m -4.489569,-0.38348 c -0.462365,-0.137 -1.076309,-0.81026 -1.731931,-1.89927 -0.02882,-0.0479 -0.05239,-0.0894 -0.05239,-0.0923 0,-0.003 -0.01358,-0.0268 -0.03018,-0.0531 -0.221597,-0.35103 -0.67508,-1.30029 -0.702835,-1.47122 -0.0536,-0.33008 0.423313,-0.33969 0.536825,-0.0108 0.369168,1.06956 1.109637,2.00617 1.475571,1.86642 0.351864,-0.13438 0.345132,-0.72877 -0.02704,-2.38712 -0.01097,-0.0489 -0.0228,-0.10033 -0.02628,-0.1143 -0.08324,-0.33426 -0.357939,-1.74135 -0.394213,-2.0193 -0.0046,-0.0349 -0.01907,-0.12922 -0.03224,-0.20955 -0.0215,-0.13108 -0.04535,-0.29229 -0.0761,-0.51435 -0.03829,-0.27657 -0.08957,-0.72218 -0.106688,-0.9271 -0.01108,-0.13272 -0.0257,-0.30131 -0.03247,-0.37465 -0.08748,-0.94705 -0.09765,-2.24269 -0.02536,-3.23215 0.02788,-0.38163 0.0757,-0.7662 0.131863,-1.06045 0.01,-0.0524 0.02472,-0.12954 0.03272,-0.17145 0.05488,-0.28761 0.215406,-0.97985 0.272421,-1.17475 0.0092,-0.0314 0.0297,-0.10287 0.04556,-0.15875 0.133407,-0.46998 0.327459,-1.03788 0.503399,-1.4732 0.09308,-0.23032 0.08496,-0.46667 -0.01783,-0.5187 -0.0506,-0.0256 -0.365726,-0.005 -0.574631,0.0379 -0.516567,0.1057 -1.026233,0.56115 -1.350145,1.20652 -0.177482,0.35362 -0.275455,0.91503 -0.275455,1.57844 0,0.44103 0.01538,0.40211 -0.279116,0.70609 -0.124043,0.12804 -0.270392,0.28606 -0.325219,0.35115 -0.168745,0.20034 -0.266537,0.21848 -0.352616,0.0654 -0.02254,-0.0401 -0.01163,-0.49705 0.01632,-0.68365 0.06695,-0.44694 0.1211,-0.69874 0.278576,-1.2954 0.06445,-0.24421 0.166843,-0.56284 0.216301,-0.6731 0.0063,-0.014 0.01857,-0.0454 0.02734,-0.0699 0.02888,-0.0805 0.197224,-0.41046 0.272138,-0.5334 0.04043,-0.0664 0.09212,-0.15295 0.114855,-0.19243 0.37112,-0.64444 1.069524,-1.44024 1.576302,-1.79613 0.332912,-0.2338 0.599616,-0.3826 1.078845,-0.60192 0.04825,-0.0221 0.187738,-0.0905 0.309976,-0.15204 0.140903,-0.0709 0.2943,-0.13626 0.4191,-0.17845 0.108267,-0.0366 0.214696,-0.0744 0.236507,-0.0839 0.02181,-0.01 0.144684,-0.0549 0.27305,-0.10069 0.128366,-0.0458 0.263396,-0.0945 0.300068,-0.10812 0.03667,-0.0136 0.09668,-0.0356 0.13335,-0.0489 0.03667,-0.0132 0.123825,-0.045 0.193675,-0.0706 0.06985,-0.0256 0.167005,-0.0609 0.2159,-0.0785 0.0489,-0.0176 0.137477,-0.0508 0.19685,-0.0739 0.05937,-0.0231 0.179386,-0.0692 0.266696,-0.10252 0.17525,-0.0669 0.40762,-0.16462 0.72023,-0.30286 0.0574,-0.0254 0.10679,-0.0461 0.10985,-0.0461 0.0175,0 0.6946,-0.33126 0.88442,-0.43271 0.27591,-0.14747 0.33718,-0.18071 0.34925,-0.18944 0.007,-0.005 0.0441,-0.0264 0.0825,-0.0474 0.0384,-0.0211 0.10985,-0.0611 0.15875,-0.0889 0.0489,-0.0279 0.15176,-0.0836 0.2286,-0.12377 0.0768,-0.0402 0.14541,-0.0773 0.1524,-0.0825 0.007,-0.005 0.11557,-0.0625 0.2413,-0.12743 0.26799,-0.13834 0.37668,-0.19611 0.48699,-0.25889 0.14301,-0.0814 0.29122,-0.028 0.31346,0.1129 0.01,0.0633 -0.0439,0.63594 -0.0777,0.82549 -0.01,0.0559 -0.0267,0.15018 -0.0372,0.20955 -0.0105,0.0594 -0.0298,0.15938 -0.043,0.22225 -0.0739,0.35403 -0.15362,0.7622 -0.15362,0.78664 0,0.0835 -0.18492,0.27895 -0.32811,0.34687 -0.0535,0.0254 -0.15713,0.0795 -0.23021,0.12017 -0.15297,0.0852 -0.37757,0.16427 -0.85773,0.30199 -0.17463,0.0501 -0.33465,0.0963 -0.3556,0.10267 -0.021,0.006 -0.0981,0.0294 -0.17145,0.0512 -0.0733,0.0218 -0.3248,0.10148 -0.5588,0.17714 -0.234,0.0756 -0.45688,0.1473 -0.4953,0.15921 -0.13284,0.0412 -0.603919,0.19932 -0.781046,0.26217 -0.09779,0.0347 -0.297815,0.10459 -0.4445,0.15531 -0.40251,0.13918 -0.516767,0.18481 -0.702122,0.28044 -0.271081,0.13984 -0.478186,0.27975 -0.50392,0.3404 -0.05335,0.12573 -0.102396,0.23844 -0.128983,0.2964 -0.01662,0.0362 -0.03023,0.0694 -0.03023,0.0737 0,0.004 -0.01077,0.0318 -0.02393,0.0611 -0.02619,0.0583 -0.166567,0.43503 -0.166567,0.44701 0,0.004 -0.01939,0.06 -0.04308,0.12435 -0.05103,0.13848 -0.177158,0.52286 -0.203463,0.62004 -0.01018,0.0376 -0.03892,0.13982 -0.06387,0.22713 -0.02495,0.0873 -0.05086,0.17875 -0.05758,0.2032 -0.0067,0.0245 -0.02617,0.093 -0.04323,0.1524 -0.01706,0.0594 -0.06033,0.23368 -0.09616,0.38735 -0.03583,0.15367 -0.07054,0.30226 -0.07712,0.3302 -0.0066,0.0279 -0.01813,0.088 -0.02564,0.13335 -0.0075,0.0454 -0.02428,0.13113 -0.03725,0.1905 -0.02423,0.11088 -0.03334,0.15903 -0.07573,0.40005 -0.134976,0.76757 -0.195132,1.68823 -0.183804,2.81305 0.0074,0.73561 0.0075,0.73645 0.130357,0.81434 0.07279,0.0462 0.08612,0.0458 0.293976,-0.008 0.0943,-0.0245 0.305752,-0.0762 0.4699,-0.11479 0.395619,-0.0931 0.60088,-0.1421 0.6858,-0.16372 0.03842,-0.01 0.144145,-0.0331 0.23495,-0.0517 0.09081,-0.0187 0.169227,-0.0365 0.174272,-0.0395 0.005,-0.003 0.05648,-0.0139 0.1143,-0.0241 0.29702,-0.0523 0.395829,0.004 0.417698,0.23854 0.006,0.0647 0.01937,0.20615 0.02964,0.31442 0.01914,0.20178 0.03154,0.3368 0.06358,0.69215 0.01008,0.11176 0.02465,0.27289 0.03238,0.35807 0.02343,0.25804 -0.0522,0.34935 -0.323968,0.39109 -0.183694,0.0282 -0.485385,0.0794 -0.596804,0.10132 -0.0489,0.01 -0.128905,0.0239 -0.1778,0.0317 -0.331656,0.0531 -1.106495,0.22755 -1.149592,0.25878 -0.174872,0.12674 -0.182283,0.20651 -0.07807,0.84024 0.01378,0.0838 0.02887,0.18097 0.03353,0.2159 0.0047,0.0349 0.03416,0.20923 0.06556,0.38735 0.0968,0.54914 0.105474,0.59511 0.176144,0.93345 0.07684,0.3679 0.09546,0.4585 0.108299,0.52705 0.0059,0.0314 0.05432,0.28003 0.10763,0.55245 0.106444,0.54394 0.120591,0.62119 0.202342,1.1049 0.08569,0.50702 0.101177,0.61212 0.127245,0.8636 0.0036,0.0349 0.0122,0.11493 0.01907,0.1778 0.100223,0.91717 -0.135512,1.4173 -0.60278,1.27885 z m 12.241119,-0.28508 c -0.0979,-0.0655 -0.11529,-0.15759 -0.0833,-0.44132 0.0181,-0.16052 0.0315,-0.29558 0.0522,-0.52705 0.008,-0.0838 0.0193,-0.20669 0.0262,-0.27305 0.007,-0.0664 0.0213,-0.22352 0.032,-0.34925 0.0107,-0.12573 0.0251,-0.29147 0.0319,-0.3683 0.0234,-0.26143 0.0376,-0.43163 0.0435,-0.5207 0.003,-0.0489 0.0232,-0.32607 0.0443,-0.61595 0.0537,-0.73749 0.12683,-2.04199 0.14665,-2.6162 0.0186,-0.53773 0.0317,-0.99384 0.0382,-1.32715 0.004,-0.20257 0.01,-0.47117 0.0135,-0.5969 0.008,-0.30539 0.008,-2.57115 -2.8e-4,-2.72415 -0.004,-0.0664 -0.009,-0.22352 -0.0127,-0.34925 -0.005,-0.2015 -0.02,-0.52413 -0.0383,-0.8382 -0.007,-0.11383 -0.0255,-0.38999 -0.0456,-0.66658 -0.007,-0.10119 -0.0157,-0.22692 -0.0184,-0.2794 -0.007,-0.14036 -0.0654,-0.86956 -0.10845,-1.36542 -0.0343,-0.39423 -0.1862,-1.9927 -0.20825,-2.19075 -0.0445,-0.39942 -0.0566,-0.523 -0.0631,-0.64135 -0.004,-0.0699 -0.01,-0.16129 -0.0137,-0.2032 -0.14166,-1.60604 0.22132,-2.32166 0.86189,-1.6992 0.40251,0.39113 0.85421,1.4149 1.02427,2.3215 0.005,0.0279 0.0185,0.0937 0.0295,0.14605 0.18591,0.8872 0.1797,1.87434 -0.0166,2.6342 -0.11663,0.45152 -0.25081,0.78715 -0.53605,1.34088 -0.2164,0.4201 -0.20716,0.38876 -0.20606,0.69852 8.8e-4,0.24877 0.009,0.35065 0.0477,0.60096 0.0424,0.27361 0.15268,0.18916 0.27553,-0.21089 0.0842,-0.27434 0.35515,-0.75674 0.54102,-0.9634 0.93484,-1.03937 2.12609,0.49209 2.12536,2.73233 -6e-4,1.83117 -0.78613,3.71437 -1.83146,4.39063 -0.0984,0.0637 -0.16274,0.14121 -0.20017,0.24125 -0.0295,0.0789 -0.0313,0.0686 0.0472,0.27667 0.0316,0.0838 0.0735,0.19526 0.093,0.24765 0.17487,0.46857 0.16366,0.43745 0.32932,0.9144 0.17008,0.48965 0.18605,0.53461 0.23403,0.65879 0.37238,0.96383 0.83797,0.97866 1.4287,0.0455 0.0307,-0.0486 0.0741,-0.11691 0.0963,-0.15183 0.0553,-0.0868 0.28589,-0.50929 0.28589,-0.5237 0,-0.0549 0.14008,-0.0989 0.19676,-0.0617 0.081,0.0531 0.18419,0.51508 0.14637,0.65528 -0.0247,0.0916 -0.13833,0.30997 -0.41302,0.79375 -0.73707,1.29811 -1.43939,1.91883 -1.82143,1.60979 -0.25408,-0.20553 -0.39832,-0.54437 -0.65553,-1.53994 -0.1442,-0.55815 -0.28311,-1.05277 -0.38698,-1.37795 -0.0201,-0.0629 -0.0773,-0.24289 -0.12715,-0.40005 -0.14616,-0.46077 -0.30556,-0.93239 -0.33155,-0.98094 -0.0125,-0.0234 -0.14076,-0.0329 -0.1711,-0.0126 -0.0405,0.027 -0.0555,0.12486 -0.0813,0.53003 -0.008,0.11874 -0.016,0.23304 -0.0188,0.254 -0.003,0.0209 -0.0113,0.12097 -0.019,0.22225 -0.008,0.10128 -0.0164,0.2071 -0.0195,0.23515 -0.006,0.0502 -0.0175,0.18265 -0.0437,0.4824 -0.0135,0.15407 -0.0292,0.31202 -0.0517,0.5207 -0.007,0.0629 -0.027,0.25146 -0.0448,0.4191 -0.0351,0.32929 -0.11199,1.00384 -0.13321,1.1684 -0.007,0.0559 -0.0241,0.18938 -0.0376,0.29666 -0.0445,0.3539 -0.24254,0.52 -0.4525,0.37961 z m 1.80511,-6.17528 c 1.40446,-0.47892 2.05931,-3.73451 0.88912,-4.42029 -0.64238,-0.37646 -1.32503,0.70041 -1.63069,2.57235 -0.0546,0.33433 -0.0595,0.40728 -0.0852,1.25641 -0.0163,0.5387 0.30584,0.76917 0.82677,0.59153 z m -0.78612,-7.78393 c 0.0622,-0.07 0.19554,-0.48605 0.23245,-0.72516 0.0544,-0.35231 0.049,-0.87403 -0.0125,-1.20015 -0.007,-0.0384 -0.0191,-0.10128 -0.0264,-0.1397 -0.11479,-0.60465 -0.31103,-0.90326 -0.50686,-0.77129 -0.1387,0.0935 -0.16621,0.30737 -0.10656,0.82844 0.044,0.38464 0.0969,0.88699 0.14524,1.38096 0.0568,0.57998 0.0645,0.6243 0.11306,0.65158 0.0463,0.026 0.12758,0.0136 0.16159,-0.0247 z"
       id="path5" /></g></svg>
