<?xml version="1.0" encoding="UTF-8" standalone="no"?>
<!-- Created with Inkscape (http://www.inkscape.org/) -->

<svg
   width="25mm"
   height="25mm"
   viewBox="-2 -3 25 25"
   version="1.1"
   id="svg1"
   xml:space="preserve"
   inkscape:export-filename="punk.svg"
   inkscape:export-xdpi="96"
   inkscape:export-ydpi="96"
   xmlns:inkscape="http://www.inkscape.org/namespaces/inkscape"
   xmlns:sodipodi="http://sodipodi.sourceforge.net/DTD/sodipodi-0.dtd"
   xmlns="http://www.w3.org/2000/svg"
   xmlns:svg="http://www.w3.org/2000/svg"><sodipodi:namedview
     id="namedview1"
     pagecolor="#ffffff"
     bordercolor="#000000"
     borderopacity="0.25"
     inkscape:showpageshadow="2"
     inkscape:pageopacity="0.0"
     inkscape:pagecheckerboard="0"
     inkscape:deskcolor="#d1d1d1"
     inkscape:document-units="mm"><inkscape:page
       x="0"
       y="0"
       width="25"
       height="25"
       id="page2"
       margin="0"
       bleed="0" /></sodipodi:namedview><defs
     id="defs1" /><g
     inkscape:label="Layer 1"
     inkscape:groupmode="layer"
     id="layer1"
     transform="translate(-92.454706,-139.18891)"><path
       style="display:inline;fill:#000000"
       d="m 101.94765,157.13103 c -0.1528,-0.0723 -0.2421,-0.19027 -0.2957,-0.39066 -0.22746,-0.85052 -0.34774,-0.91521 -0.57284,-0.30811 -0.0753,0.20303 -0.25738,0.49305 -0.37407,0.59576 -0.22729,0.20007 -0.729965,0.0469 -0.889849,-0.27116 -0.01776,-0.0353 -0.06304,-0.11162 -0.10062,-0.16952 -0.03758,-0.0579 -0.08335,-0.13504 -0.101723,-0.17145 -0.01837,-0.0364 -0.06186,-0.11358 -0.09665,-0.17151 -0.09728,-0.16201 -0.131846,-0.27388 -0.180183,-0.58314 -0.06201,-0.39677 -0.13104,-1.60953 -0.116585,-2.04838 0.004,-0.12224 0.01235,-0.64516 0.0185,-1.16205 0.0097,-0.81867 0.0154,-0.99546 0.0439,-1.3716 0.058,-0.76533 0.06388,-0.90498 0.05639,-1.33985 -0.0071,-0.40928 -0.0045,-0.4798 0.03395,-0.94615 0.04832,-0.58573 0.05792,-1.11085 0.02648,-1.4478 -0.01043,-0.11176 -0.02474,-0.34126 -0.0318,-0.50999 -0.01901,-0.45444 -0.02965,-0.48811 -0.186845,-0.59167 -0.159981,-0.1054 -0.174629,-0.13328 -0.245378,-0.46704 -0.06957,-0.32819 -0.121004,-1.77196 -0.07736,-2.17145 0.09949,-0.91069 0.246018,-1.40354 0.447668,-1.50572 0.285164,-0.1445 0.34882,-0.15862 0.512191,-0.11362 0.06322,0.0174 0.148508,0.038 0.189524,0.0457 0.15232,0.0286 0.20244,0.11784 0.28113,0.50051 0.0187,0.0908 0.0473,0.21367 0.0637,0.27305 0.0938,0.34058 0.1013,0.4671 0.1013,1.7145 0,1.13649 -0.004,1.23357 -0.064,1.7145 -0.037,0.29496 -0.0452,0.43652 -0.0562,0.9652 -0.006,0.29686 -0.017,0.60547 -0.0241,0.6858 -0.007,0.0803 -0.0192,0.2432 -0.0269,0.36195 -0.0309,0.47688 -0.0628,0.90519 -0.0957,1.28433 -0.0135,0.15612 -0.0189,0.39995 -0.0191,0.8636 -2e-4,0.49304 -0.005,0.68668 -0.0196,0.81752 -0.0113,0.10032 -0.0241,0.39274 -0.0308,0.70485 -0.006,0.29337 -0.0145,0.54483 -0.0181,0.5588 -0.057,0.22018 -0.0471,0.8086 0.0191,1.143 0.0208,0.10477 0.0431,0.27124 0.0496,0.36992 0.0673,1.01679 0.65981,1.0157 0.88205,-0.002 0.0183,-0.0838 0.0529,-0.22098 0.0768,-0.3048 0.0551,-0.19336 0.0777,-0.29958 0.0957,-0.45085 0.0185,-0.15535 0.11003,-0.68253 0.16426,-0.94615 0.0301,-0.14643 0.0364,-0.19987 0.0507,-0.4318 0.009,-0.13882 0.0244,-0.24736 0.0584,-0.40005 0.0406,-0.18253 0.0479,-0.24149 0.0568,-0.4572 0.007,-0.17546 0.0196,-0.29763 0.0425,-0.4191 0.0318,-0.1689 0.0624,-0.39754 0.0781,-0.5842 0.004,-0.0524 0.01,-0.33814 0.0119,-0.635 0.002,-0.32067 0.0103,-0.5937 0.0196,-0.67265 0.0106,-0.0901 0.0131,-0.22503 0.008,-0.4191 -0.0198,-0.72462 -0.0219,-1.00329 -0.0108,-1.42285 0.0214,-0.81061 0.0117,-0.8582 -0.20244,-0.9993 -0.19379,-0.12766 -0.28124,-0.33687 -0.30238,-0.72333 -0.007,-0.11972 -0.0233,-0.29688 -0.0372,-0.3937 -0.062,-0.4317 -0.0718,-0.65447 -0.0537,-1.21742 0.0143,-0.4443 0.0214,-0.49259 0.12269,-0.83453 0.0867,-0.29282 0.13717,-0.36504 0.31087,-0.44501 0.0594,-0.0273 0.14584,-0.0685 0.19215,-0.0915 0.16474,-0.0818 0.44562,-0.0769 0.52877,0.009 0.0705,0.073 0.19668,0.44631 0.2435,0.72049 0.0582,0.34076 0.1006,1.74131 0.0775,2.55905 -0.007,0.25146 -0.019,0.83439 -0.0264,1.2954 -0.007,0.46101 -0.0248,1.13823 -0.0387,1.50495 -0.0139,0.36671 -0.0305,0.82105 -0.0371,1.00965 -0.007,0.18859 -0.015,0.3629 -0.0188,0.38735 -0.004,0.0244 -0.01,0.27019 -0.0129,0.5461 -0.005,0.45102 -0.0196,0.74034 -0.0566,1.143 -0.0388,0.42218 -0.0432,0.56369 -0.0432,1.36525 5e-5,0.53537 0.006,0.91161 0.0155,1.0414 0.0578,0.76326 0.1164,1.03489 0.22332,1.03507 0.0462,8e-5 0.16212,0.13542 0.17953,0.20953 0.22227,0.94614 0.0625,2.03956 -0.31009,2.12218 -0.0535,0.0119 -0.13693,0.035 -0.1853,0.0514 -0.12544,0.0426 -0.2203,0.0402 -0.32217,-0.008 z m 4.82547,-0.12632 c -0.16067,-0.0503 -0.27467,-0.0596 -0.3958,-0.0324 -0.3764,0.0845 -0.49985,-0.019 -0.58115,-0.48724 -0.0886,-0.51046 0.0194,-1.48431 0.2496,-2.2499 0.0942,-0.31317 0.0951,-0.31518 0.19749,-0.4445 0.1148,-0.14495 0.11565,-0.14699 0.15264,-0.36555 0.0178,-0.10507 0.0493,-0.26595 0.0701,-0.35751 0.0208,-0.0916 0.0499,-0.24779 0.0647,-0.34718 0.0286,-0.19173 0.0286,-0.18342 -6.3e-4,-0.75856 -0.008,-0.16174 -0.008,-0.37762 -3e-4,-0.6223 0.0114,-0.34638 0.0186,-0.46272 0.0514,-0.82468 0.008,-0.086 0.008,-0.18411 -8.1e-4,-0.2794 -0.007,-0.0808 -0.0191,-0.21741 -0.0267,-0.30362 -0.0102,-0.1149 -0.0101,-0.20304 4.7e-4,-0.3302 0.0334,-0.40275 0.0389,-0.47591 0.052,-0.68145 0.008,-0.11875 0.0191,-0.28448 0.0257,-0.3683 0.0386,-0.49151 0.0293,-0.86247 -0.0331,-1.31873 -0.0244,-0.17886 -0.031,-0.28176 -0.0311,-0.48895 -2e-4,-0.47482 -0.0233,-0.63084 -0.14683,-0.99337 -0.16208,-0.47547 -0.26623,-0.68402 -0.34201,-0.68487 -0.0542,-6e-4 -0.17635,0.13391 -0.25346,0.27917 -0.0241,0.0454 -0.0698,0.11393 -0.10154,0.15229 -0.0615,0.0743 -0.0911,0.14933 -0.1279,0.32396 -0.0118,0.0559 -0.0386,0.1416 -0.0597,0.1905 -0.0838,0.19484 -0.11792,0.34022 -0.13758,0.58684 -0.008,0.0963 -0.0222,0.22659 -0.0323,0.28946 -0.0101,0.0629 -0.0271,0.18288 -0.0378,0.2667 -0.0474,0.37187 -0.0851,0.60007 -0.12592,0.76205 -0.056,0.2222 -0.094,0.47104 -0.10773,0.7048 -0.006,0.10128 -0.0253,0.34702 -0.0429,0.5461 -0.0786,0.88616 -0.10152,1.74054 -0.0611,2.2733 0.0414,0.5444 0.0431,0.62003 0.0268,1.1938 -0.0314,1.10486 -9.1e-4,1.30309 0.24047,1.5658 0.21133,0.22999 0.26585,0.69418 0.13009,1.10755 -0.0634,0.19307 -0.10652,0.38421 -0.13461,0.5969 -0.0792,0.59917 -0.30991,0.91535 -0.68533,0.93903 -0.10339,0.007 -0.16071,0.0193 -0.31845,0.071 -0.30062,0.0986 -0.35549,0.0885 -0.52512,-0.0966 -0.17155,-0.18716 -0.1998,-0.30908 -0.22937,-0.9901 -0.0383,-0.88222 0.0648,-1.51037 0.30311,-1.84663 0.17191,-0.24259 0.18415,-0.29636 0.26608,-1.16921 0.0778,-0.82838 0.0824,-0.9087 0.0704,-1.21122 -0.0145,-0.36578 -0.01,-0.54872 0.0204,-0.79538 0.0316,-0.25797 0.0488,-0.74647 0.0497,-1.4097 4e-4,-0.30839 0.008,-0.62641 0.0209,-0.8255 0.0239,-0.382 0.0258,-0.93003 0.005,-1.4859 -0.0117,-0.31216 -0.0115,-0.46534 6.5e-4,-0.69718 0.0348,-0.66251 -0.0145,-0.98172 -0.21589,-1.39832 -0.17049,-0.35268 -0.21441,-0.52815 -0.24841,-0.99233 -0.0822,-1.12257 0.12026,-1.99536 0.48765,-2.10216 0.18252,-0.0531 0.33214,0.0216 0.39861,0.19889 0.017,0.0454 0.0625,0.14541 0.10104,0.22225 0.10485,0.20897 0.10254,0.19982 0.2702,1.07257 0.055,0.28652 0.11279,0.22508 0.41352,-0.44002 0.38216,-0.8452 0.4808,-0.9745 0.74394,-0.97521 0.3348,-9e-4 0.57568,0.25416 0.72727,0.77013 0.0753,0.25628 0.12959,0.41091 0.1971,0.56142 0.0565,0.12596 0.0701,0.21343 0.0834,0.53511 0.007,0.16764 0.0214,0.38195 0.0321,0.47625 0.0107,0.0943 0.0275,0.3629 0.0373,0.5969 0.0169,0.40576 0.0427,0.81558 0.0696,1.1049 0.0337,0.36229 0.0432,0.72085 0.0255,0.96232 -0.0205,0.28033 -0.0209,0.58071 -0.002,1.26192 0.0378,1.32869 0.0412,1.57382 0.0326,2.34776 -0.0169,1.53285 0.0409,2.4542 0.17841,2.84208 0.0166,0.0469 0.0477,0.13419 0.0691,0.19399 0.0808,0.22606 0.1038,1.01722 0.0417,1.43433 -0.2732,1.83561 -0.39684,2.10208 -0.90205,1.94405 z m -10.759002,-0.0824 c -0.07902,-0.0319 -0.136879,-0.0459 -0.2159,-0.0522 -0.191392,-0.0152 -0.390994,-0.0547 -0.486854,-0.0962 -0.232073,-0.10051 -0.190975,-0.0929 -0.488177,-0.0899 -0.337538,0.003 -0.347551,1.7e-4 -0.50142,-0.16217 -0.481589,-0.50812 -0.505502,-1.78435 -0.03966,-2.11676 0.136125,-0.0971 0.211376,-0.19065 0.303309,-0.3769 0.137823,-0.27923 0.149972,-0.39263 0.103,-0.96138 -0.04152,-0.5027 -0.05781,-0.71959 -0.07109,-0.94615 -0.0074,-0.12573 -0.01608,-0.24078 -0.01937,-0.25567 -0.0033,-0.0149 -0.0117,-0.26117 -0.0187,-0.5473 -0.007,-0.28612 -0.02098,-0.62256 -0.03107,-0.74763 -0.06361,-0.78898 -0.06441,-0.82401 -0.03928,-1.70695 0.01397,-0.49079 0.02202,-1.05843 0.02008,-1.41605 -0.0038,-0.6944 0.01562,-1.34178 0.05093,-1.7018 0.0153,-0.15603 0.02959,-0.44506 0.03705,-0.7493 0.01228,-0.50121 0.03603,-0.908 0.07028,-1.20333 0.04905,-0.42305 0.05664,-0.50009 0.06907,-0.70167 0.02535,-0.41103 -0.0237,-0.55527 -0.207369,-0.60981 -0.0977,-0.029 -0.134383,-0.0187 -0.357172,0.10086 -0.121699,0.0653 -0.285362,0.065 -0.376709,-6.1e-4 -0.27155,-0.1951 -0.209665,-0.5987 0.26609,-1.73537 0.213863,-0.51097 0.369111,-0.7053 0.758217,-0.94909 0.15831,-0.0992 0.214257,-0.14308 0.331086,-0.25972 0.123614,-0.12342 0.159643,-0.15096 0.29845,-0.22813 0.216007,-0.12009 0.293958,-0.17397 0.407769,-0.28186 0.129807,-0.12305 0.182712,-0.15992 0.334628,-0.23319 0.08993,-0.0434 0.178976,-0.10177 0.298833,-0.19594 0.258815,-0.20336 0.324752,-0.23265 0.633397,-0.28137 0.36787,-0.0581 0.497703,0.0128 0.745846,0.40703 0.201211,0.31967 0.242291,0.4139 0.301749,0.69215 0.09151,0.42827 0.09642,0.51175 0.10202,1.73448 0.0027,0.59153 0.01084,1.12832 0.01856,1.22462 0.07158,0.89338 0.08438,1.37798 0.04681,1.77165 -0.01133,0.11874 -0.0263,0.41592 -0.03326,0.6604 -0.02715,0.95364 -0.08752,1.68502 -0.164696,1.99558 -0.04934,0.19855 -0.08127,0.38853 -0.11389,0.67777 -0.03414,0.30265 -0.05935,0.40776 -0.172966,0.72102 -0.09921,0.27356 -0.169073,0.51199 -0.201777,0.68868 -0.05251,0.28367 -0.06365,0.32541 -0.114924,0.43051 -0.02931,0.0601 -0.09557,0.16639 -0.147253,0.23624 -0.120789,0.16326 -0.150913,0.21014 -0.208487,0.32447 -0.121423,0.24111 -0.390316,0.54608 -0.541251,0.61386 -0.0444,0.02 -0.132288,0.0613 -0.195294,0.0919 -0.06301,0.0306 -0.128982,0.0556 -0.146612,0.0556 -0.01763,0 -0.06324,0.0197 -0.101343,0.0437 -0.116089,0.0732 -0.162652,0.0962 -0.247047,0.12232 -0.442624,0.13671 -0.533007,0.95417 -0.28495,2.57719 0.124381,0.81382 0.155504,0.87002 0.580534,1.04829 0.374283,0.15699 0.491275,0.43483 0.549944,1.30605 0.05511,0.81835 -0.292204,1.28747 -0.80112,1.08209 z m 0.240716,-8.54368 c 0.447916,-0.0969 0.573906,-0.23697 0.855068,-0.95065 0.194117,-0.49274 0.328828,-1.24986 0.415775,-2.3368 0.01425,-0.17812 0.0314,-0.38672 0.03812,-0.46355 0.01872,-0.21416 0.0148,-0.88841 -0.0062,-1.06045 -0.0098,-0.0803 -0.02642,-0.21749 -0.03697,-0.3048 -0.01055,-0.0873 -0.02553,-0.28448 -0.03331,-0.43815 -0.05569,-1.10072 -0.132933,-1.33723 -0.490154,-1.50077 -0.106428,-0.0487 -0.694532,-0.0548 -0.795343,-0.008 -0.212758,0.0983 -0.36026,0.4398 -0.396705,0.91848 -0.01463,0.19214 -0.04555,0.47353 -0.0642,0.5842 -0.03453,0.20493 -0.05689,0.47754 -0.07032,0.85725 -0.0074,0.20955 -0.02442,0.47244 -0.0378,0.5842 -0.04043,0.3377 -0.08009,1.02447 -0.09526,1.6494 -0.0042,0.17374 -0.01867,0.41377 -0.03212,0.5334 -0.06241,0.55514 -0.0055,1.47569 0.104256,1.68668 0.143149,0.27515 0.281086,0.32856 0.64513,0.24982 z m 11.976686,8.49895 c -0.39094,-0.11966 -0.53258,-0.7782 -0.34572,-1.60735 0.0283,-0.12573 0.0696,-0.31147 0.0917,-0.41275 0.10966,-0.50302 0.23046,-0.64435 0.50585,-0.59183 0.15079,0.0288 0.23521,-0.0156 0.30637,-0.1611 0.0863,-0.17652 0.20018,-0.83293 0.25376,-1.46322 0.0142,-0.16764 0.0356,-0.41339 0.0475,-0.5461 0.0147,-0.16434 0.0201,-0.32637 0.0171,-0.508 -0.0134,-0.80617 -0.005,-1.13788 0.0366,-1.46547 0.0842,-0.66195 0.0928,-1.42672 0.0268,-2.38263 -0.007,-0.0978 -0.0121,-0.56357 -0.0118,-1.03505 3.4e-4,-0.5865 -0.005,-0.91341 -0.0154,-1.03505 -0.01,-0.11056 -0.0164,-0.42036 -0.0172,-0.81915 -0.001,-0.68252 -0.005,-0.73922 -0.0887,-1.2827 -0.0297,-0.19335 -0.0555,-0.4844 -0.0643,-0.7239 -0.0158,-0.43193 -0.0349,-0.51464 -0.18907,-0.81921 -0.0495,-0.0978 -0.10405,-0.21173 -0.12119,-0.25312 -0.0373,-0.0901 -0.13807,-0.20216 -0.28491,-0.31688 -0.34655,-0.27076 -0.43316,-0.58334 -0.43321,-1.56354 -4e-5,-0.77774 0.0453,-1.00349 0.23709,-1.18107 0.15687,-0.14523 0.21565,-0.13622 0.55155,0.0846 0.19417,0.12762 0.24081,0.15286 0.30045,0.16256 0.16229,0.0264 0.19288,0.0586 0.32039,0.33706 0.27893,0.60911 0.34284,0.84804 0.42475,1.58781 0.049,0.44216 0.0594,0.59382 0.11547,1.66974 0.0144,0.2759 0.0398,0.63881 0.0565,0.80645 0.0167,0.16764 0.0338,0.35052 0.038,0.4064 0.004,0.0559 0.0139,0.16696 0.0216,0.24685 0.0104,0.1084 0.01,0.24054 -0.002,0.5207 -0.0139,0.33357 -0.0134,0.39193 0.005,0.52326 0.0667,0.47832 0.0752,0.86122 0.031,1.38889 -0.0245,0.29199 -0.0259,0.35004 -0.0127,0.50165 0.008,0.0943 0.0181,0.37433 0.0219,0.6223 0.01,0.65055 0.0479,0.9524 0.13899,1.1049 0.0229,0.0384 0.0456,0.0927 0.0504,0.12065 0.009,0.0516 0.0426,0.12065 0.0589,0.12065 0.005,0 0.027,-0.058 0.049,-0.12893 0.022,-0.0709 0.0481,-0.14122 0.058,-0.15625 0.01,-0.015 0.0516,-0.12132 0.0928,-0.2362 0.13569,-0.3785 0.16923,-0.45355 0.3006,-0.6726 0.2047,-0.34134 0.24764,-0.64669 0.20266,-1.44127 -0.0573,-1.01164 -0.003,-1.29801 0.26081,-1.38398 0.0382,-0.0124 0.12088,-0.0425 0.18375,-0.0669 0.14522,-0.0563 0.22171,-0.0529 0.45085,0.0202 0.28659,0.0915 0.33263,0.10197 0.4826,0.11023 0.48725,0.0268 0.68303,0.15526 0.90272,0.5922 0.11909,0.23686 0.10577,0.59921 -0.0467,1.26949 -0.0462,0.20292 -0.30602,0.34075 -0.64418,0.34166 -0.25752,6.9e-4 -0.3968,0.18578 -0.73565,0.97762 -0.0706,0.16505 -0.13845,0.29932 -0.20334,0.40258 -0.33134,0.52728 -0.49747,1.22338 -0.45555,1.90882 0.008,0.12922 0.0228,0.38068 0.0331,0.5588 0.0175,0.302 0.0221,0.33713 0.0685,0.5207 0.0363,0.14346 0.0536,0.24532 0.0638,0.37558 0.0168,0.21542 0.0269,0.27357 0.09,0.51977 0.0589,0.2296 0.0736,0.35271 0.0831,0.69293 0.009,0.32758 0.0203,0.41993 0.0811,0.66846 0.027,0.11039 0.0556,0.26071 0.0636,0.33406 0.0283,0.26028 0.0846,0.35332 0.26488,0.43838 0.42704,0.20143 0.40306,0.81148 -0.0595,1.51464 -0.19069,0.28986 -0.27778,0.33928 -0.59819,0.33946 -0.16518,9e-5 -0.28279,0.007 -0.39603,0.0242 -0.34771,0.0521 -0.49346,-0.0183 -0.55689,-0.26885 -0.0333,-0.13162 -0.0431,-0.14137 -0.0636,-0.0635 -0.0162,0.0615 -0.0967,0.21273 -0.11322,0.21273 -0.006,0 -0.0391,0.0223 -0.0736,0.0495 -0.079,0.0624 -0.14392,0.0952 -0.22779,0.11493 -0.0363,0.009 -0.11627,0.0445 -0.1778,0.0799 -0.17643,0.10151 -0.2256,0.12002 -0.4459,0.16786 -0.61179,0.13286 -0.91036,0.17662 -1.00582,0.1474 z m 2.24979,-1.9439 c 0.0923,-0.22287 0.10058,-0.26838 0.11283,-0.61595 0.006,-0.16066 0.0254,-0.42641 0.0438,-0.59055 0.0385,-0.34214 0.0366,-0.40843 -0.0193,-0.67945 -0.0202,-0.0978 -0.043,-0.24638 -0.0507,-0.3302 -0.0184,-0.19964 -0.0362,-0.27372 -0.1116,-0.46401 -0.0345,-0.0871 -0.0781,-0.20522 -0.0969,-0.26258 -0.10217,-0.31143 -0.18714,-0.13183 -0.29887,0.63177 -0.0218,0.14908 -0.0572,0.32859 -0.0827,0.4191 -0.064,0.22755 -0.15094,1.10314 -0.12759,1.28558 0.0252,0.197 0.12127,0.33898 0.28534,0.42178 0.14347,0.0724 0.20661,0.18457 0.23609,0.41946 0.01,0.0762 0.01,0.0762 0.0241,0.006 0.008,-0.0384 0.0465,-0.14701 0.0855,-0.2413 z"
       id="path3" /></g></svg>
