<?xml version="1.0" encoding="UTF-8" standalone="no"?>
<!-- Created with Inkscape (http://www.inkscape.org/) -->

<svg
   width="25mm"
   height="25mm"
   viewBox="-2 -3 25 25"
   version="1.1"
   id="svg1"
   xml:space="preserve"
   inkscape:export-filename="punk.svg"
   inkscape:export-xdpi="96"
   inkscape:export-ydpi="96"
   xmlns:inkscape="http://www.inkscape.org/namespaces/inkscape"
   xmlns:sodipodi="http://sodipodi.sourceforge.net/DTD/sodipodi-0.dtd"
   xmlns="http://www.w3.org/2000/svg"
   xmlns:svg="http://www.w3.org/2000/svg"><sodipodi:namedview
     id="namedview1"
     pagecolor="#ffffff"
     bordercolor="#000000"
     borderopacity="0.25"
     inkscape:showpageshadow="2"
     inkscape:pageopacity="0.0"
     inkscape:pagecheckerboard="0"
     inkscape:deskcolor="#d1d1d1"
     inkscape:document-units="mm"><inkscape:page
       x="0"
       y="0"
       width="25"
       height="25"
       id="page2"
       margin="0"
       bleed="0" /></sodipodi:namedview><defs
     id="defs1" /><g
     inkscape:label="Layer 1"
     inkscape:groupmode="layer"
     id="layer1"
     transform="translate(-92.454706,-139.18891)"><path
       style="display:inline;fill:#000000"
       d="m 96.884068,158.69214 c -0.145744,-0.0426 -0.22163,-0.19448 -0.221673,-0.44378 -4.4e-5,-0.2552 0.01886,-0.43911 0.127282,-1.23825 0.0076,-0.0559 0.02722,-0.18733 0.04363,-0.2921 0.01642,-0.10478 0.04789,-0.31052 0.06994,-0.4572 0.02205,-0.14669 0.05654,-0.36957 0.07663,-0.4953 0.04859,-0.30402 0.04904,-0.30812 0.06268,-0.5715 0.0065,-0.12573 0.02627,-0.46863 0.04391,-0.762 0.01764,-0.29337 0.04082,-0.69057 0.0515,-0.88265 0.01068,-0.19209 0.02513,-0.44069 0.0321,-0.55245 0.04175,-0.66947 0.07965,-1.25203 0.102022,-1.56845 0.01408,-0.19908 0.03103,-0.43911 0.03767,-0.5334 0.01208,-0.17147 0.02896,-0.37949 0.07626,-0.9398 0.01386,-0.16415 0.03078,-0.36989 0.03759,-0.4572 0.02676,-0.34283 0.0531,-0.66294 0.07,-0.8509 0.0097,-0.10827 0.02407,-0.28258 0.03184,-0.38735 0.0078,-0.10478 0.02511,-0.30766 0.03853,-0.45085 0.01341,-0.1432 0.0304,-0.34608 0.03776,-0.45085 0.0074,-0.10478 0.01877,-0.23622 0.02537,-0.2921 0.0066,-0.0559 0.02368,-0.23305 0.03796,-0.3937 0.01428,-0.16066 0.0309,-0.34068 0.03695,-0.40005 0.006,-0.0594 0.02069,-0.20797 0.03254,-0.3302 0.02511,-0.25902 0.100423,-0.83921 0.121776,-0.93811 0.06923,-0.3206 0.309071,-0.1936 0.38661,0.20472 0.110185,0.56602 0.06635,1.32127 -0.209883,3.61629 -0.0206,0.17113 -0.0491,0.41973 -0.06334,0.55245 -0.01424,0.13271 -0.03431,0.30971 -0.0446,0.39332 -0.03759,0.3054 -0.01454,0.21819 0.06368,-0.24092 0.04403,-0.25845 0.09255,-0.53277 0.107816,-0.6096 0.316503,-1.59316 0.516637,-2.05138 0.829763,-1.8998 0.268533,0.12999 0.495147,0.98303 0.592415,2.23 0.259389,3.32535 -0.09495,6.22359 -0.877812,7.17975 -0.04195,0.0512 -0.07437,0.0946 -0.07205,0.0964 0.256682,0.19604 0.659975,0.0465 0.900518,-0.33395 0.29999,-0.47446 0.610388,-1.74025 0.615468,-2.50987 0.0195,-2.95557 0.48144,-5.99489 1.02068,-6.71587 0.38084,-0.50919 0.76928,-0.25328 1.0951,0.72147 0.0679,0.2032 0.0679,0.2032 0.078,0.1143 0.0106,-0.0933 0.0761,-0.57601 0.0974,-0.71771 0.053,-0.35291 0.12241,-0.50784 0.22755,-0.50784 0.1094,0 0.15606,0.0914 0.20413,0.40005 0.0133,0.0851 0.0208,0.15063 0.0546,0.47625 0.0202,0.1939 0.0197,1.5478 -5.7e-4,1.87325 -0.056,0.89779 -0.0643,0.99901 -0.16717,2.03835 -0.0193,0.19503 -0.0767,0.66101 -0.12122,0.98425 -0.0241,0.17462 -0.0498,0.36893 -0.0573,0.4318 -0.007,0.0629 -0.0336,0.23967 -0.0581,0.39291 -0.13386,0.83749 -0.10012,2.89603 0.0567,3.45873 0.0745,0.26747 0.13655,0.29354 0.25901,0.10889 0.33384,-0.50338 0.6555,-2.04925 0.86639,-4.16373 0.0181,-0.18161 0.0412,-0.40736 0.0513,-0.50165 0.0262,-0.24418 0.0597,-0.63739 0.0952,-1.1176 0.007,-0.10129 0.0192,-0.24988 0.0261,-0.3302 0.0133,-0.15618 0.0268,-0.3584 0.0564,-0.84455 0.0102,-0.16764 0.0244,-0.3991 0.0316,-0.51435 0.0347,-0.55875 0.0366,-0.70019 0.01,-0.76183 -0.0654,-0.15164 -0.11761,-0.32821 -0.20116,-0.67962 -0.0357,-0.14999 -0.0824,-0.46973 -0.10668,-0.73025 -0.0101,-0.10827 -0.0255,-0.27401 -0.0343,-0.3683 -0.0591,-0.63749 -9.2e-4,-1.81081 0.10512,-2.11901 0.0948,-0.27546 0.28269,-0.1593 0.36674,0.22671 0.008,0.0384 0.0203,0.0927 0.0265,0.12065 0.0979,0.4401 0.12948,0.89265 0.13404,1.92033 0.005,1.03807 -0.029,0.8829 0.28398,1.31182 0.32747,0.44879 0.47334,0.82952 0.54577,1.42447 0.007,0.0582 0.0182,0.14588 0.0247,0.19478 0.0515,0.38893 0.0678,1.64097 0.0281,2.16535 -0.007,0.0943 -0.0193,0.2686 -0.027,0.38735 -0.008,0.11874 -0.0279,0.37877 -0.0449,0.57785 -0.11738,1.37417 -0.10369,1.20071 -0.12625,1.6002 -0.0528,0.93565 -0.03,1.71652 0.0583,1.9939 0.15622,0.49078 0.557,-0.3401 0.85627,-1.77518 0.10562,-0.50644 0.10747,-0.52219 0.17109,-1.45062 0.0401,-0.58517 0.0625,-0.9006 0.0826,-1.16205 0.0102,-0.13272 0.0246,-0.34132 0.0319,-0.46355 0.007,-0.12224 0.0244,-0.36227 0.0377,-0.5334 0.0133,-0.17114 0.0305,-0.40545 0.0382,-0.5207 0.008,-0.11526 0.0194,-0.27813 0.0262,-0.36195 0.007,-0.0838 0.0177,-0.23241 0.0245,-0.3302 0.007,-0.0978 0.0207,-0.29782 0.0311,-0.4445 0.0205,-0.28871 0.0507,-0.72725 0.0706,-1.02508 0.007,-0.10279 0.0181,-0.23709 0.0249,-0.29845 0.007,-0.0614 0.0185,-0.18587 0.0259,-0.27667 0.007,-0.0908 0.0218,-0.2394 0.0319,-0.3302 0.024,-0.21543 0.0781,-0.8779 0.0954,-1.1684 0.007,-0.12573 0.0191,-0.31147 0.0258,-0.41275 0.007,-0.10129 0.0177,-0.47562 0.0244,-0.83185 0.007,-0.35624 0.0154,-0.70771 0.0193,-0.78105 0.0352,-0.65619 0.043,-2.2127 0.0132,-2.63525 -0.0108,-0.15367 -0.0252,-0.37084 -0.032,-0.4826 -0.007,-0.11176 -0.0238,-0.38608 -0.0378,-0.6096 -0.12301,-1.96565 -0.11035,-2.72743 0.0474,-2.8515 0.18422,-0.14491 0.36461,0.24971 0.54877,1.2005 0.0216,0.11176 0.0474,0.2432 0.0573,0.2921 0.0289,0.14285 0.0764,0.45867 0.15184,1.00965 0.0548,0.40007 0.1186,1.00578 0.14582,1.3843 0.0143,0.19907 0.0287,0.38876 0.0319,0.42153 0.0101,0.10314 -0.0169,1.61053 -0.0366,2.04862 -0.0104,0.2305 -0.0248,0.57626 -0.0321,0.76835 -0.0134,0.35565 -0.0291,0.60157 -0.0516,0.80645 -0.007,0.0629 -0.0299,0.27896 -0.0512,0.48022 -0.0213,0.20126 -0.0411,0.37271 -0.044,0.381 -0.003,0.008 -0.011,0.0694 -0.0179,0.13573 -0.007,0.0663 -0.0246,0.19494 -0.0391,0.28575 -0.0146,0.0908 -0.0314,0.20224 -0.0374,0.24765 -0.006,0.0454 -0.0256,0.16827 -0.0435,0.27305 -0.0755,0.4421 -0.12838,0.84829 -0.16613,1.27635 -0.0174,0.19689 -0.0486,0.52806 -0.07,0.74295 -0.0308,0.30886 -0.0491,0.50094 -0.057,0.5969 -0.007,0.0835 -0.047,0.50946 -0.0772,0.81915 -0.0105,0.10826 -0.0244,0.26257 -0.0307,0.3429 -0.006,0.0803 -0.0206,0.24892 -0.0318,0.37465 -0.0111,0.12573 -0.0285,0.32289 -0.0387,0.43815 -0.0101,0.11525 -0.03,0.36099 -0.0442,0.5461 -0.0142,0.1851 -0.0343,0.43942 -0.0447,0.56515 -0.0104,0.12573 -0.0249,0.33718 -0.0322,0.4699 -0.007,0.13271 -0.0187,0.30702 -0.0253,0.38735 -0.0193,0.23287 -0.0284,0.95268 -0.0116,0.9144 0.0202,-0.0457 0.10878,-0.39536 0.15291,-0.60325 0.17428,-0.82092 0.21834,-1.04875 0.32175,-1.6637 0.074,-0.43983 0.11416,-0.69007 0.2244,-1.397 0.0825,-0.52894 0.12919,-0.8207 0.15756,-0.98425 0.0164,-0.0943 0.0335,-0.19717 0.0381,-0.2286 0.0649,-0.44526 0.27436,-1.51761 0.39564,-2.02565 0.29054,-1.217 0.52573,-1.62303 0.78676,-1.35826 0.32785,0.33256 0.37153,1.28931 0.0826,1.80845 -0.7588,1.36318 -1.0431,2.40036 -0.96796,3.53126 0.0276,0.41526 0.0973,1.16187 0.12868,1.37795 0.007,0.0489 0.0186,0.1289 0.0256,0.1778 0.013,0.091 0.097,0.60709 0.11373,0.6985 0.0176,0.0963 0.0883,0.39775 0.11515,0.49087 0.0148,0.0513 0.0317,0.11047 0.0376,0.13143 0.0216,0.0768 0.0509,0.16575 0.0627,0.1905 0.007,0.014 0.0265,0.0604 0.044,0.10319 0.31333,0.76619 0.73723,-0.0642 1.13214,-2.21774 0.0928,-0.506 0.11054,-0.67803 0.1331,-1.28905 0.0114,-0.30808 0.0369,-0.8285 0.0945,-1.9304 0.0106,-0.20257 0.0251,-0.48546 0.0321,-0.62865 0.007,-0.1432 0.0157,-0.30322 0.0193,-0.3556 0.004,-0.0524 0.0177,-0.32957 0.0313,-0.61595 0.0136,-0.28639 0.0305,-0.63786 0.0375,-0.78105 0.028,-0.57396 0.0397,-1.27342 0.0369,-2.21615 -0.004,-1.29147 -0.0153,-1.66771 -0.0872,-2.8433 -0.0775,-1.26726 -0.0894,-2.24745 -0.0307,-2.5315 0.0904,-0.43768 0.37702,-0.35074 0.57413,0.17415 0.24438,0.65079 0.41879,1.72487 0.51349,3.1623 0.0105,0.15889 0.0158,0.50025 0.0149,0.9525 -0.001,0.64777 -0.01,0.93586 -0.043,1.4732 -0.007,0.10826 -0.0181,0.29686 -0.0252,0.4191 -0.007,0.12223 -0.019,0.2794 -0.0263,0.34925 -0.007,0.0699 -0.0305,0.29273 -0.0514,0.4953 -0.0209,0.20256 -0.0461,0.42545 -0.0559,0.4953 -0.0383,0.27307 -0.0721,0.50004 -0.0899,0.60325 -0.0102,0.0594 -0.0296,0.17653 -0.0429,0.26035 -0.0133,0.0838 -0.0443,0.26098 -0.0687,0.3937 -0.055,0.29833 -0.0676,0.38772 -0.084,0.5969 -0.007,0.0908 -0.0189,0.21939 -0.0261,0.28575 -0.0126,0.11645 -0.0305,0.31269 -0.0698,0.76835 -0.0269,0.31096 -0.0409,0.46856 -0.062,0.6985 -0.0103,0.11176 -0.0222,0.2632 -0.0265,0.33655 -0.004,0.0733 -0.0131,0.18192 -0.0196,0.2413 -0.14272,1.30548 -0.14463,3.26094 -0.003,3.54664 0.11965,0.24217 0.47604,-0.56283 0.7774,-1.75594 0.21033,-0.83276 0.22979,-0.95822 0.22979,-1.48181 0,-0.51048 0.016,-0.97088 0.0441,-1.26774 0.01,-0.10478 0.0216,-0.24194 0.0259,-0.3048 0.01,-0.1416 0.0514,-0.53695 0.0762,-0.7239 0.0102,-0.0768 0.0273,-0.20543 0.0379,-0.28575 0.0949,-0.71566 0.34907,-1.68874 0.57307,-2.19416 0.51745,-1.16755 1.37919,-1.63166 1.85585,-0.99952 0.11005,0.14596 0.1716,0.31633 0.21319,0.59018 0.27213,1.7916 -1.08442,4.9149 -2.13471,4.9149 -0.0532,0 -0.0564,0.027 -0.0563,0.4826 5e-5,1.28866 0.20071,2.1353 0.48734,2.05616 0.28112,-0.0776 0.67751,-0.70662 1.02366,-1.62436 0.17849,-0.47324 0.38606,-1.11915 0.53262,-1.65735 0.0266,-0.0978 0.0775,-0.28353 0.11307,-0.41275 0.0841,-0.3058 0.16339,-0.61126 0.25039,-0.9652 0.22978,-0.93474 0.2044,-0.85692 0.30287,-0.92896 0.14682,-0.10743 0.20125,0.0264 0.12732,0.31301 -0.0108,0.0419 -0.0306,0.13004 -0.044,0.19584 -0.0257,0.12626 -0.20118,0.82428 -0.27485,1.09321 -0.0239,0.0873 -0.0721,0.26447 -0.10717,0.3937 -0.035,0.12922 -0.1,0.36068 -0.14433,0.51435 -0.0444,0.15367 -0.10158,0.35655 -0.12718,0.45085 -0.64383,2.3714 -1.4298,3.63077 -2.11934,3.39582 -0.26054,-0.0888 -0.56092,-0.82411 -0.58046,-1.42097 -8e-4,-0.0244 -0.0124,0.003 -0.0323,0.0762 -0.70962,2.61224 -1.4921,3.20515 -1.61742,1.22555 -0.0331,-0.52209 -0.0263,-0.47586 -0.0534,-0.3683 -0.61655,2.45528 -1.4452,2.90764 -1.8844,1.0287 -0.0171,-0.0733 -0.0366,-0.15336 -0.0433,-0.1778 -0.0762,-0.28017 -0.25636,-1.53075 -0.26802,-1.86055 -0.001,-0.0303 -0.0442,0.15149 -0.11462,0.4826 -0.11424,0.5375 -0.13976,0.65653 -0.18374,0.85725 -0.0253,0.11525 -0.0652,0.30099 -0.0887,0.41275 -0.0235,0.11176 -0.0604,0.28321 -0.082,0.381 -0.0216,0.0978 -0.0617,0.28352 -0.0892,0.41275 -0.19673,0.92516 -0.33883,1.25095 -0.54564,1.25095 -0.20841,0 -0.27476,-0.19082 -0.30028,-0.8636 -0.006,-0.17108 -0.0117,-0.21902 -0.0206,-0.1905 -0.3224,1.03045 -0.77551,1.49504 -1.13244,1.16115 -0.25969,-0.24293 -0.35719,-0.82154 -0.35617,-2.11365 5.6e-4,-0.70838 0.0207,-1.14704 0.095,-2.06375 0.0139,-0.17114 0.0307,-0.38831 0.0374,-0.4826 0.007,-0.0943 0.0208,-0.28575 0.0313,-0.42545 0.075,-0.99585 0.0885,-1.94222 0.0327,-2.3025 -0.0345,-0.22257 -0.045,-0.2728 -0.0854,-0.40895 -0.037,-0.12458 -0.18884,-0.46665 -0.20151,-0.45398 -0.002,0.002 -0.0158,0.23542 -0.03,0.51802 -0.0142,0.28259 -0.0317,0.59667 -0.039,0.69796 -0.007,0.10128 -0.0215,0.31845 -0.0317,0.4826 -0.0175,0.28323 -0.0539,0.76024 -0.0823,1.0795 -0.007,0.0803 -0.0217,0.24606 -0.0322,0.3683 -0.0105,0.12223 -0.0249,0.27654 -0.0318,0.3429 -0.007,0.0663 -0.0323,0.33496 -0.0564,0.5969 -0.0639,0.69533 -0.17544,1.4805 -0.30468,2.14511 -0.0239,0.12289 -0.0614,0.31773 -0.0832,0.43299 -0.10081,0.5311 -0.22468,0.95822 -0.30118,1.03855 -0.0248,0.026 -0.0617,0.0873 -0.082,0.1362 -0.41224,0.99266 -0.98608,0.84639 -1.12104,-0.28575 -0.005,-0.0384 -0.0136,-0.0984 -0.02,-0.13335 -0.0171,-0.0933 -0.063,-0.61771 -0.0639,-0.7294 -0.001,-0.18899 -0.0149,-0.21312 -0.0423,-0.076 -0.45595,2.28229 -1.43018,2.40924 -1.69707,0.22115 -0.0361,-0.29563 -0.037,-0.29855 -0.0632,-0.1905 -0.259176,1.06783 -0.842073,1.67445 -1.422468,1.48035 -0.628388,-0.21015 -1.101844,-0.86038 -1.239738,-1.7026 -0.02391,-0.14605 -0.02391,-0.14605 -0.03219,-0.006 -0.0046,0.0768 -0.01716,0.27686 -0.02802,0.4445 -0.02689,0.41523 -0.04249,0.72528 -0.06553,1.30175 -0.04206,1.05245 -0.08036,1.28201 -0.238888,1.43192 -0.07528,0.0712 -0.119619,0.082 -0.218081,0.0533 z m 4.244762,-1.94556 c 0.14911,-0.15503 0.32265,-0.65438 0.47337,-1.36207 0.15041,-0.70622 0.30889,-1.79135 0.32274,-2.2098 0.0123,-0.37063 0.0442,-1.13726 0.0579,-1.39065 0.007,-0.12923 0.0184,-0.35211 0.0254,-0.4953 0.0202,-0.41256 0.0689,-1.16539 0.11509,-1.77701 0.0342,-0.4527 -0.30212,-1.73767 -0.50887,-1.94442 -0.36368,-0.36368 -0.72956,1.52436 -0.88851,4.58503 -0.0401,0.77156 -0.0471,2.23873 -0.0132,2.7519 0.007,0.10348 0.0185,0.29387 0.0258,0.4231 0.007,0.12922 0.0188,0.28638 0.0253,0.34925 0.007,0.0629 0.0179,0.18002 0.0254,0.26035 0.0566,0.61362 0.19977,0.95497 0.33956,0.80962 z m -2.759956,-1.09982 c 0.108514,-0.21616 0.244323,-0.62778 0.305482,-0.92588 0.01683,-0.082 0.03945,-0.18346 0.05026,-0.22537 0.1744,-0.67619 0.289549,-2.39562 0.259829,-3.87985 -0.0088,-0.4391 -0.03628,-1.0855 -0.0559,-1.31445 -0.0036,-0.0419 -0.01233,-0.14478 -0.01943,-0.2286 -0.03494,-0.41285 -0.104999,-0.76535 -0.174149,-0.8763 -0.07203,-0.11558 -0.305478,0.64296 -0.439819,1.42913 -0.01727,0.10107 -0.04842,0.28092 -0.06922,0.39967 -0.04116,0.23498 -0.04926,0.28541 -0.14288,0.889 -0.09864,0.63598 -0.187064,1.22083 -0.227528,1.50495 -0.02039,0.14319 -0.06263,0.42322 -0.09386,0.6223 -0.03123,0.19907 -0.06316,0.41052 -0.07097,0.4699 -0.01437,0.10929 -0.134268,0.87598 -0.147968,0.94615 -0.0074,0.0381 -0.0074,0.0381 0.0296,0.003 0.136962,-0.12916 0.188238,-0.0331 0.479501,0.89853 0.184886,0.59135 0.170943,0.5787 0.31705,0.28765 z m 13.489526,-4.73883 c 0.83288,-0.40711 1.77665,-3.50357 1.34236,-4.40423 -0.14739,-0.30569 -0.54564,-0.0121 -0.79721,0.58771 -0.25207,0.60101 -0.50682,1.72985 -0.59041,2.6162 -0.008,0.0838 -0.0223,0.22383 -0.0319,0.31115 -0.0168,0.15162 -0.0468,0.50981 -0.0675,0.80431 -0.0111,0.15821 -0.008,0.15973 0.14468,0.0849 z m -17.347367,4.61522 c -0.618751,-0.14979 -1.244789,-0.95712 -1.777677,-2.29247 -0.782518,-1.9609 -0.895832,-2.8774 -0.389537,-3.15065 0.238159,-0.12854 0.690111,-0.11163 0.971636,0.0363 0.207196,0.10891 0.288232,0.43091 0.138155,0.54897 -0.04108,0.0323 -0.08478,0.0333 -0.25983,0.006 -0.773304,-0.12219 -0.952908,0.085 -0.772205,0.89087 0.395859,1.76534 1.574212,3.1338 2.439371,2.83293 0.994895,-0.34599 1.696066,-2.8784 1.445453,-5.22053 -0.0067,-0.0629 -0.01868,-0.17431 -0.02657,-0.24765 -0.125027,-1.1629 -0.496776,-1.40871 -1.815113,-1.2002 -1.146158,0.18128 -1.813666,-0.0523 -2.213563,-0.77465 -0.303893,-0.54892 -0.373608,-1.48085 -0.166735,-2.22885 0.07039,-0.25452 0.139787,-0.46275 0.197639,-0.59303 0.01301,-0.0293 0.02366,-0.0562 0.02366,-0.0598 0,-0.004 0.01682,-0.0424 0.03738,-0.0864 0.02056,-0.044 0.05157,-0.11423 0.06891,-0.15614 0.01734,-0.0419 0.04694,-0.10478 0.06578,-0.1397 0.01883,-0.0349 0.07988,-0.15209 0.135668,-0.26035 0.05579,-0.10827 0.117951,-0.22143 0.138147,-0.25146 0.0202,-0.03 0.03672,-0.057 0.03672,-0.0599 0,-0.004 0.104638,-0.18305 0.145875,-0.24892 0.0071,-0.0113 0.02351,-0.0394 0.0365,-0.0624 0.013,-0.023 0.07797,-0.12499 0.144383,-0.22661 0.06641,-0.10162 0.144154,-0.22212 0.172755,-0.26779 0.0286,-0.0457 0.09793,-0.14705 0.154067,-0.22532 0.05614,-0.0783 0.127783,-0.18007 0.159216,-0.22624 0.03143,-0.0462 0.124279,-0.1736 0.206325,-0.28316 0.08205,-0.10956 0.198892,-0.26778 0.259656,-0.3516 0.06077,-0.0838 0.140103,-0.18669 0.176307,-0.2286 0.0362,-0.0419 0.138746,-0.16749 0.227871,-0.27906 1.830047,-2.29094 2.840274,-2.34179 2.782061,-0.14004 -0.03283,1.24177 -0.510962,2.64787 -1.004003,2.95258 -0.224258,0.1386 -0.337052,-0.22093 -0.150727,-0.48044 0.01989,-0.0277 0.06925,-0.0968 0.1097,-0.1535 0.783306,-1.09862 1.063745,-3.37716 0.397299,-3.22801 -0.403276,0.0902 -1.200584,0.8098 -1.760502,1.58882 -0.03765,0.0524 -0.103017,0.13811 -0.145252,0.1905 -0.129645,0.16081 -0.317376,0.41804 -0.597823,0.81915 -0.281059,0.40198 -0.694169,1.05988 -0.865241,1.37795 -0.02818,0.0524 -0.07015,0.12954 -0.09327,0.17145 -0.05851,0.10605 -0.178375,0.34965 -0.228086,0.46355 -0.02287,0.0524 -0.05546,0.12382 -0.07243,0.15875 -0.03523,0.0725 -0.05133,0.11452 -0.111865,0.2921 -0.02381,0.0699 -0.05776,0.16764 -0.07543,0.21731 -0.01767,0.0497 -0.04085,0.12968 -0.05149,0.1778 -0.343437,1.55232 0.218759,2.27067 1.304302,1.66658 0.05096,-0.0284 0.126946,-0.0697 0.168856,-0.0919 0.04191,-0.0222 0.173355,-0.0968 0.2921,-0.1658 0.324385,-0.18844 0.345878,-0.20005 0.476249,-0.25713 0.800842,-0.35065 1.339196,0.0407 1.574352,1.14438 0.01474,0.0692 0.02889,0.1292 0.03144,0.13335 0.0025,0.004 0.02501,0.14184 0.04991,0.30599 0.222905,1.46927 0.167518,3.7677 -0.126394,5.2451 -0.252053,1.26698 -0.682178,2.08592 -1.246457,2.37319 -0.123195,0.0627 -0.447044,0.0864 -0.617539,0.0451 z m 5.157612,-11.94012 c -0.01084,-0.0122 -0.02272,-0.0479 -0.02639,-0.0794 -0.0728,-0.6226 -0.112534,-0.75275 -0.280757,-0.91971 -0.06715,-0.0666 -0.284574,-0.19789 -0.327832,-0.19789 -0.0264,0 -0.285103,-0.126 -0.30301,-0.14758 -0.04508,-0.0543 0.01465,-0.0994 0.216964,-0.16368 0.05948,-0.0189 0.119581,-0.0392 0.133551,-0.0452 0.01397,-0.006 0.06113,-0.0222 0.104795,-0.036 0.269274,-0.0856 0.536555,-0.3926 0.536555,-0.61632 0,-0.0105 0.0079,-0.0378 0.01758,-0.0607 0.0097,-0.0229 0.02406,-0.0703 0.03197,-0.1052 0.01499,-0.0662 0.0601,-0.22136 0.07811,-0.26869 0.03093,-0.0813 0.151699,-0.0267 0.168489,0.0762 0.006,0.0371 0.0135,0.0725 0.0468,0.22423 0.007,0.0314 0.0185,0.11144 0.0258,0.1778 0.007,0.0663 0.0192,0.14351 0.0265,0.17145 0.007,0.0279 0.0192,0.0737 0.0264,0.1016 0.0237,0.0911 0.0915,0.2147 0.14986,0.27305 0.0553,0.0553 0.0949,0.0811 0.21593,0.14059 0.0314,0.0155 0.0886,0.0436 0.127,0.0625 0.0384,0.0189 0.0927,0.0418 0.12065,0.051 0.0279,0.009 0.0721,0.03 0.0982,0.0464 0.0261,0.0164 0.0523,0.0298 0.0584,0.0298 0.11337,0 0.0309,0.15115 -0.0978,0.17908 -0.25569,0.0555 -0.32894,0.0734 -0.36993,0.0905 -0.0175,0.007 -0.0432,0.0174 -0.0572,0.0226 -0.17728,0.0656 -0.29644,0.18659 -0.34998,0.35551 -0.006,0.0175 -0.0224,0.0632 -0.0376,0.1016 -0.01513,0.0384 -0.03349,0.0927 -0.04081,0.12065 -0.0073,0.0279 -0.01824,0.0562 -0.02426,0.0629 -0.006,0.007 -0.01095,0.0206 -0.01095,0.0311 0,0.0309 -0.07847,0.23297 -0.106551,0.27433 -0.04934,0.0727 -0.111004,0.0922 -0.150522,0.0476 z m 3.532375,-0.41434 c -0.0178,-0.0178 -0.0411,-0.0663 -0.0537,-0.11175 -0.0406,-0.14652 -0.0956,-0.33093 -0.12986,-0.43593 -0.009,-0.0279 -0.0259,-0.088 -0.0372,-0.13335 -0.0322,-0.1291 -0.0701,-0.25643 -0.09,-0.30206 -0.01,-0.0229 -0.0182,-0.0528 -0.0182,-0.0662 0,-0.0135 -0.008,-0.0433 -0.0176,-0.0662 -0.0161,-0.0383 -0.0322,-0.0958 -0.0593,-0.21315 -0.0223,-0.0964 -0.13314,-0.40178 -0.16589,-0.4572 -0.006,-0.0105 -0.0171,-0.0305 -0.0241,-0.0444 -0.007,-0.014 -0.024,-0.0426 -0.0377,-0.0635 -0.0137,-0.021 -0.036,-0.0581 -0.0496,-0.0825 -0.097,-0.17384 -0.49746,-0.4826 -0.62599,-0.4826 -0.0118,0 -0.0251,-0.006 -0.0294,-0.0127 -0.004,-0.007 -0.0219,-0.0127 -0.039,-0.0127 -0.0172,0 -0.0411,-0.005 -0.0532,-0.0121 -0.0121,-0.007 -0.0535,-0.0177 -0.0919,-0.0245 -0.0384,-0.007 -0.0913,-0.0185 -0.11748,-0.026 -0.0262,-0.007 -0.0691,-0.0197 -0.0952,-0.0271 -0.0262,-0.007 -0.0676,-0.0192 -0.0921,-0.0262 -0.0535,-0.0154 -0.17012,-0.0442 -0.26996,-0.0667 -0.1696,-0.0382 -0.191,-0.17944 -0.0379,-0.25001 0.0331,-0.0152 0.0703,-0.0328 0.0825,-0.0391 0.0123,-0.006 0.0495,-0.0205 0.0825,-0.0316 0.0549,-0.0184 0.10774,-0.04 0.21258,-0.0868 0.0511,-0.0228 0.11867,-0.0516 0.1651,-0.0703 0.11765,-0.0475 0.12432,-0.0507 0.29664,-0.14172 0.17814,-0.0941 0.39766,-0.36133 0.48613,-0.59171 0.006,-0.0157 0.0167,-0.0429 0.0237,-0.0603 0.0421,-0.10529 0.0635,-0.17301 0.0635,-0.2011 0,-0.0118 0.005,-0.0314 0.0122,-0.0436 0.007,-0.0121 0.021,-0.10778 0.0318,-0.21255 0.0108,-0.10478 0.0281,-0.25623 0.0385,-0.33655 0.0196,-0.15075 0.0406,-0.3175 0.0761,-0.60325 0.0113,-0.0908 0.0231,-0.20225 0.0262,-0.24765 0.0265,-0.38189 0.17957,-0.4956 0.25639,-0.1905 0.008,0.0314 0.0239,0.0886 0.0354,0.127 0.0115,0.0384 0.0264,0.0968 0.033,0.12964 0.007,0.0329 0.0203,0.0758 0.0305,0.0952 0.0102,0.0195 0.0185,0.0431 0.0186,0.0525 1.1e-4,0.0242 0.0498,0.19106 0.0711,0.23884 0.01,0.022 0.0179,0.0502 0.0179,0.0626 0,0.0124 0.005,0.0401 0.0117,0.0616 0.006,0.0215 0.024,0.0819 0.0391,0.13425 0.0151,0.0524 0.0351,0.11811 0.0445,0.14605 0.009,0.0279 0.021,0.0708 0.0259,0.0952 0.005,0.0244 0.013,0.0502 0.0182,0.0572 0.005,0.007 0.0218,0.0659 0.037,0.13097 0.0152,0.065 0.033,0.12791 0.0395,0.1397 0.007,0.0118 0.0239,0.05 0.0387,0.0849 0.0408,0.0968 0.0918,0.19895 0.12045,0.2413 0.15252,0.22568 0.30397,0.36813 0.50308,0.4732 0.086,0.0454 0.14068,0.0643 0.25227,0.0873 0.0175,0.004 0.0432,0.0114 0.0571,0.0173 0.0268,0.0114 0.0743,0.0227 0.14299,0.0341 0.0228,0.004 0.0445,0.0119 0.0484,0.0181 0.004,0.006 0.0263,0.0113 0.0499,0.0113 0.0236,0 0.046,0.005 0.0498,0.011 0.004,0.006 0.0417,0.015 0.0844,0.0198 0.0426,0.005 0.0899,0.0137 0.10506,0.0198 0.0151,0.006 0.0727,0.0211 0.12801,0.0334 0.20209,0.0449 0.23459,0.22933 0.047,0.26684 -0.0214,0.004 -0.0455,0.0157 -0.0535,0.0253 -0.008,0.01 -0.0219,0.0175 -0.031,0.0175 -0.009,0 -0.0326,0.008 -0.0524,0.0182 -0.0438,0.0222 -0.20182,0.0939 -0.2455,0.11142 -0.0523,0.0209 -0.1026,0.0433 -0.20955,0.0931 -0.0559,0.026 -0.11589,0.0535 -0.13335,0.061 -0.20141,0.0868 -0.4084,0.29812 -0.53225,0.54347 -0.0425,0.0843 -0.0774,0.16131 -0.0774,0.17115 0,0.01 -0.005,0.0278 -0.0122,0.0399 -0.007,0.0121 -0.0185,0.0506 -0.0261,0.0856 -0.008,0.0349 -0.0195,0.0864 -0.0263,0.1143 -0.0198,0.0812 -0.0861,0.58967 -0.13339,1.02235 -0.0521,0.47625 -0.0768,0.63518 -0.10489,0.6731 -0.033,0.0446 -0.0901,0.0481 -0.13023,0.008 z m -2.86773,-3.59984 c -0.007,-0.0128 -0.0155,-0.0942 -0.0193,-0.18098 -0.0223,-0.51343 -0.0294,-0.54997 -0.11666,-0.59639 -0.0202,-0.0107 -0.0624,-0.0363 -0.0938,-0.0568 -0.0314,-0.0205 -0.0686,-0.0437 -0.0825,-0.0515 -0.205904,-0.11538 -0.222252,-0.12805 -0.222252,-0.17221 0,-0.0451 0.01157,-0.0513 0.105922,-0.0561 0.40626,-0.0209 0.38723,-0.0182 0.44831,-0.064 0.0347,-0.026 0.16967,-0.26902 0.16967,-0.30558 0,-0.006 0.0194,-0.0507 0.043,-0.0996 0.067,-0.13877 0.10941,-0.23266 0.10941,-0.2424 0,-0.037 0.0822,-0.0545 0.0997,-0.0212 0.0203,0.0386 0.0494,0.45452 0.0433,0.61913 -0.004,0.10089 0.063,0.23495 0.11692,0.23495 0.0402,0 0.35666,0.1741 0.37452,0.20604 0.0328,0.0587 0.009,0.0685 -0.27081,0.10962 -0.32904,0.0485 -0.28813,0.008 -0.53508,0.52346 -0.0832,0.17343 -0.1348,0.22002 -0.17031,0.15367 z"
       id="path2" /></g></svg>
