<?xml version="1.0" encoding="UTF-8" standalone="no"?>
<!-- Created with Inkscape (http://www.inkscape.org/) -->

<svg
   width="25mm"
   height="25mm"
   viewBox="-2 -3 25 25"
   version="1.1"
   id="svg1"
   xml:space="preserve"
   inkscape:export-filename="sparkle.svg"
   inkscape:export-xdpi="96"
   inkscape:export-ydpi="96"
   xmlns:inkscape="http://www.inkscape.org/namespaces/inkscape"
   xmlns:sodipodi="http://sodipodi.sourceforge.net/DTD/sodipodi-0.dtd"
   xmlns="http://www.w3.org/2000/svg"
   xmlns:svg="http://www.w3.org/2000/svg"><sodipodi:namedview
     id="namedview1"
     pagecolor="#ffffff"
     bordercolor="#000000"
     borderopacity="0.25"
     inkscape:showpageshadow="2"
     inkscape:pageopacity="0.0"
     inkscape:pagecheckerboard="0"
     inkscape:deskcolor="#d1d1d1"
     inkscape:document-units="mm"><inkscape:page
       x="0"
       y="0"
       width="25"
       height="25"
       id="page2"
       margin="0"
       bleed="0" /></sodipodi:namedview><defs
     id="defs1" /><g
     inkscape:label="Layer 1"
     inkscape:groupmode="layer"
     id="layer1"
     transform="translate(-92.454706,-139.18891)"><path
       style="display:inline;fill:#000000"
       d="m 102.94942,158.93211 c -0.30731,-0.0883 -0.54292,-0.88752 -0.73132,-2.4808 -0.0174,-0.14669 -0.0374,-0.31242 -0.0446,-0.3683 -0.007,-0.0559 -0.0184,-0.16447 -0.0249,-0.2413 -0.007,-0.0768 -0.0235,-0.26829 -0.0378,-0.42545 -0.0646,-0.71279 -0.1252,-1.65941 -0.15279,-2.3876 -0.006,-0.17114 -0.0148,-0.36259 -0.0185,-0.42545 -0.004,-0.0629 -0.01,-0.24003 -0.0135,-0.3937 -0.004,-0.15367 -0.01,-0.33941 -0.0133,-0.41275 -0.0374,-0.76848 -0.0582,-3.3737 -0.0386,-4.83235 0.01,-0.73745 0.0551,-2.64824 0.0647,-2.73685 0.003,-0.0314 0.0122,-0.27718 0.0195,-0.5461 0.016,-0.5915 0.0211,-0.74592 0.0372,-1.12395 0.007,-0.16066 0.0153,-0.36354 0.0187,-0.45085 0.003,-0.0873 0.0136,-0.33592 0.0225,-0.55245 0.009,-0.21654 0.0155,-0.488 0.0146,-0.60325 -0.009,-1.21605 -0.002,-1.4659 0.0545,-1.8542 0.0866,-0.59641 0.22529,-0.82384 0.41439,-0.67945 0.0769,0.0587 0.0686,0.0636 0.15382,-0.0921 0.39145,-0.71504 0.9063,-1.27828 1.20599,-1.31936 0.22627,-0.031 0.72714,1.09309 0.82776,1.85777 0.0109,0.0828 0.0251,0.19057 0.0315,0.23947 0.0329,0.25145 -0.0321,0.55413 -0.19861,0.92518 -0.21595,0.48112 -0.36903,0.67119 -1.06187,1.31852 -0.40871,0.38186 -0.6207,0.60894 -0.63552,0.68076 -0.014,0.0678 -0.0281,6.07347 -0.0142,6.07357 0.006,4e-5 0.13703,-0.12756 0.2907,-0.28356 0.66346,-0.67352 0.96647,-0.71699 1.31537,-0.18871 0.40767,0.61725 0.6053,1.44542 0.49608,2.07874 -0.11508,0.66731 -0.29769,1.02393 -0.52286,1.02109 -0.24283,-0.003 -0.70118,0.39987 -1.40148,1.232 -0.0992,0.11784 -0.13108,0.43406 -0.0898,0.89016 0.0131,0.14515 0.0318,0.82947 0.0393,1.44145 0.004,0.34925 0.0119,0.63948 0.0168,0.64497 0.0103,0.0114 0.0669,-0.071 0.17906,-0.26021 0.38127,-0.64337 0.55556,-0.69394 0.88839,-0.25776 0.82602,1.08248 0.67531,2.39601 -0.44435,3.87294 -0.0744,0.0981 -0.18761,0.25611 -0.25167,0.35114 -0.18451,0.27377 -0.25869,0.32795 -0.39523,0.28872 z m -4.447964,-1.51878 c -0.111808,-0.12197 -0.227503,-0.48113 -0.361028,-1.12077 -0.03864,-0.18511 -0.08158,-0.39085 -0.09541,-0.4572 -0.05004,-0.24003 -0.08924,-0.44403 -0.145178,-0.75565 -0.03135,-0.17463 -0.06543,-0.36322 -0.07575,-0.4191 -0.07384,-0.39995 -0.123245,-0.90836 -0.157971,-1.6256 -0.0074,-0.15367 -0.02181,-0.35084 -0.03193,-0.43815 -0.01012,-0.0873 -0.0274,-0.24162 -0.03839,-0.3429 -0.04556,-0.41975 -0.08781,-0.77106 -0.141282,-1.17475 -0.0111,-0.0838 -0.02545,-0.20078 -0.03189,-0.25991 -0.0064,-0.0591 -0.01976,-0.15914 -0.0296,-0.22225 -0.0098,-0.0631 -0.02164,-0.15189 -0.02621,-0.19729 -0.0046,-0.0454 -0.01333,-0.11684 -0.01945,-0.15875 -0.07251,-0.49584 -0.147986,-1.32537 -0.17101,-1.8796 -0.0038,-0.0908 -0.0098,-0.20797 -0.01329,-0.26035 -0.03264,-0.48324 -0.04317,-1.98895 -0.01914,-2.73685 0.01259,-0.39172 0.01822,-0.51401 0.05178,-1.12395 0.08127,-1.4772 0.309171,-3.1479 0.580361,-4.2545 0.07065,-0.28829 0.08466,-0.32975 0.12228,-0.36195 1.074609,-0.91967 1.831195,-1.14235 2.464002,-0.72522 0.74417,0.49053 1.13445,2.48407 0.90404,4.61777 -0.0639,0.59159 -0.26876,1.68473 -0.42011,2.24155 -0.009,0.0349 -0.0496,0.18637 -0.0892,0.33655 -0.17996,0.6833 -0.43805,1.50463 -0.70437,2.24155 -0.0429,0.11874 -0.09702,0.27019 -0.120223,0.33655 -0.02321,0.0663 -0.131818,0.35782 -0.241358,0.6477 -0.109539,0.28987 -0.220967,0.58705 -0.247617,0.6604 -0.05926,0.16307 -0.174089,0.47575 -0.286843,0.78105 -0.04644,0.12573 -0.103308,0.28003 -0.126382,0.3429 -0.144402,0.39342 -0.355695,0.89756 -0.471713,1.12549 -0.03065,0.0602 -0.05293,0.11737 -0.04951,0.127 0.0034,0.01 0.01218,0.10895 0.01947,0.22071 0.01384,0.21231 0.02452,0.36445 0.05746,0.81915 0.01088,0.15017 0.0251,0.35306 0.0316,0.45085 0.01076,0.16199 0.0303,0.41637 0.0634,0.8255 0.135548,1.6754 0.08527,2.77495 -0.126887,2.77495 -0.01136,0 -0.03505,-0.0157 -0.05266,-0.0349 z m -0.256863,-8.5157 c 0.02185,-0.0504 0.07402,-0.16888 0.115926,-0.26317 0.04191,-0.0943 0.111729,-0.25146 0.155153,-0.34925 0.04342,-0.0978 0.116008,-0.26067 0.161299,-0.36195 0.04529,-0.10129 0.112957,-0.25273 0.15037,-0.33655 0.03741,-0.0838 0.0974,-0.21813 0.1333,-0.29845 0.06049,-0.13535 0.122868,-0.29561 0.279277,-0.71755 0.03366,-0.0908 0.09681,-0.2594 0.140321,-0.37465 0.266322,-0.70536 0.632951,-1.91924 0.742221,-2.45745 0.01,-0.0489 0.0471,-0.22035 0.0827,-0.381 0.0355,-0.16066 0.0753,-0.3464 0.0883,-0.41275 0.013,-0.0664 0.0558,-0.24924 0.095,-0.4064 0.0628,-0.25157 0.14128,-0.61642 0.16559,-0.76957 0.0256,-0.16152 -0.41359,-0.46272 -0.806112,-0.55279 -0.390378,-0.0896 -1.366211,0.0808 -1.55733,0.27195 -0.0087,0.009 -0.07261,0.66768 -0.105553,1.08851 -0.110153,1.40708 -0.136854,3.4943 -0.06385,4.9911 0.02101,0.4307 0.06078,0.92992 0.07523,0.94438 0.0073,0.007 0.0132,0.038 0.0132,0.0683 0,0.0303 0.01465,0.12201 0.03255,0.20383 0.0179,0.0818 0.03516,0.16163 0.03834,0.17734 0.0093,0.046 0.02193,0.0335 0.06408,-0.0639 z m 8.667217,8.54123 c -0.20211,-0.037 -0.35854,-0.37177 -0.43777,-0.93675 -0.0108,-0.0768 -0.0431,-0.29972 -0.0718,-0.4953 -0.0802,-0.54628 -0.0987,-0.6872 -0.13229,-1.00965 -0.0171,-0.16415 -0.04,-0.38132 -0.0508,-0.4826 -0.0109,-0.10129 -0.0283,-0.28988 -0.0388,-0.4191 -0.0104,-0.12923 -0.0218,-0.2521 -0.0251,-0.27305 -0.0302,-0.18773 -0.10475,-1.39573 -0.11484,-1.86055 -0.007,-0.32489 -0.0204,-0.60753 -0.0439,-0.9271 -0.0388,-0.52971 -0.0419,-2.04113 -0.006,-3.1242 0.003,-0.0873 0.008,-0.29306 0.0122,-0.4572 0.004,-0.16415 0.01,-0.40704 0.0132,-0.53975 0.0244,-0.94589 0.0318,-1.24225 0.0377,-1.50495 0.004,-0.16415 0.009,-0.39561 0.0128,-0.51435 0.003,-0.11875 0.009,-0.36164 0.0128,-0.53975 0.006,-0.30422 0.0122,-0.448 0.0449,-1.10173 0.0169,-0.33735 0.0222,-0.43632 0.032,-0.60007 0.0257,-0.42662 0.01,-0.84168 -0.0452,-1.1684 -0.0332,-0.19762 -0.0382,-0.25513 -0.0319,-0.36195 0.0198,-0.33452 0.0654,-0.67258 0.13347,-0.9906 0.0269,-0.12573 0.0528,-0.25718 0.0575,-0.2921 0.0476,-0.35301 0.26144,-0.84039 0.37833,-0.86232 0.48317,-0.0907 0.85981,-0.004 1.1832,0.27233 0.0211,0.018 0.065,0.0481 0.0976,0.0668 0.19437,0.11165 0.50149,0.69599 0.64878,1.2344 0.10824,0.39566 -0.0882,1.00778 -0.43425,1.35296 -0.12858,0.12827 -0.27487,0.20977 -0.56583,0.31526 -0.56842,0.20607 -0.57073,0.20762 -0.57924,0.38918 -0.004,0.0908 -0.0113,0.18224 -0.0157,0.2032 -0.0207,0.0996 -0.0245,0.4752 -0.0275,2.77809 -0.002,1.36032 -0.007,2.50475 -0.012,2.54318 -0.0122,0.0978 -0.008,0.0953 0.21914,-0.11583 0.89975,-0.83797 1.3336,-0.68611 1.74608,0.61116 0.10934,0.34389 0.13126,0.52885 0.085,0.71755 -0.18128,0.73972 -0.19376,0.75693 -0.72923,1.0056 -0.40115,0.1863 -1.17154,0.52909 -1.22446,0.54485 -0.0726,0.0216 -0.0713,0.0145 -0.0541,0.2954 0.008,0.13381 0.0175,0.36617 0.0207,0.51635 0.008,0.35753 0.0175,0.65892 0.0316,0.97155 0.006,0.1397 0.015,0.41973 0.0192,0.6223 0.004,0.20256 0.016,0.44375 0.026,0.53596 0.01,0.0922 0.0189,0.22938 0.0198,0.3048 0.003,0.27299 0.0123,0.32127 0.0502,0.26339 0.15601,-0.23842 0.33733,-0.6859 0.4136,-1.02071 0.10737,-0.47131 0.18157,-0.55548 0.38421,-0.43587 0.24519,0.14472 0.60677,0.66665 0.70167,1.01283 0.1781,0.64968 -0.30187,1.91402 -1.07513,2.8321 -0.0294,0.0349 -0.12217,0.15494 -0.20611,0.2667 -0.2292,0.30513 -0.34355,0.3992 -0.45945,0.37795 z m 3.69141,-1.43697 c -0.0946,-0.11244 -0.15276,-0.56824 -0.18166,-1.42383 -0.005,-0.13621 -0.0101,-0.25051 -0.0121,-0.254 -0.002,-0.004 -0.007,-0.24067 -0.0115,-0.52705 -0.004,-0.28639 -0.0105,-0.56928 -0.0138,-0.62865 -0.003,-0.0594 -0.009,-0.36799 -0.0128,-0.6858 -0.016,-1.36935 -0.0355,-2.25474 -0.0637,-2.8956 -0.0342,-0.779 -0.0557,-1.22096 -0.0759,-1.5621 -0.0344,-0.58018 -0.0523,-0.85723 -0.0693,-1.07315 -0.007,-0.0838 -0.0182,-0.23813 -0.0258,-0.3429 -0.0125,-0.17293 -0.0238,-0.31323 -0.0643,-0.79375 -0.0204,-0.2428 -0.0488,-0.54599 -0.0696,-0.74295 -0.0103,-0.0978 -0.0245,-0.24067 -0.0316,-0.3175 -0.007,-0.0768 -0.0157,-0.15399 -0.0191,-0.17145 -0.003,-0.0175 -0.0146,-0.11748 -0.0249,-0.22225 -0.0365,-0.37277 -0.10024,-0.91847 -0.1588,-1.3589 -0.013,-0.0978 -0.0271,-0.20924 -0.0312,-0.24765 -0.004,-0.0384 -0.0185,-0.14415 -0.0319,-0.23495 -0.0134,-0.0908 -0.0364,-0.25083 -0.0513,-0.3556 -0.0443,-0.31252 -0.11712,-0.78335 -0.17177,-1.11125 -0.067,-0.40208 -0.12035,-0.76926 -0.12035,-0.82833 0,-0.0353 0,-0.0353 0.10477,-0.0351 0.77309,0.001 1.9736,1.07373 2.77193,2.47634 0.0338,0.0594 0.10807,0.18796 0.16504,0.28575 0.47257,0.81105 0.77228,1.41232 0.98753,1.9812 0.14069,0.37184 0.21569,0.60302 0.36668,1.1303 0.30143,1.05263 0.2548,2.35528 -0.13774,3.8481 -0.26211,0.99679 -0.64931,2.01382 -1.24748,3.2766 -0.0825,0.17411 -0.46339,0.93506 -0.54563,1.09001 -0.0266,0.0501 -0.10313,0.19478 -0.17007,0.32152 -0.21593,0.40879 -0.39066,0.68814 -0.72284,1.15561 -0.21559,0.30339 -0.25735,0.33462 -0.33079,0.24734 z m 0.72431,-4.32261 c 0.53221,-0.89341 1.08101,-2.52988 1.27849,-3.81235 0.01,-0.0633 0.0264,-0.16656 0.0369,-0.22942 0.16379,-0.97586 0.18888,-2.23525 0.0527,-2.64326 -0.17858,-0.53487 -1.12692,-1.35019 -1.95362,-1.67959 -0.2068,-0.0824 -0.20591,-0.0844 -0.14824,0.33505 0.0534,0.38833 0.14783,1.1459 0.20266,1.6256 0.0144,0.12573 0.0345,0.30003 0.0448,0.38735 0.0867,0.73705 0.21794,2.0693 0.27277,2.7686 0.10254,1.30776 0.12476,1.74946 0.13625,2.70827 0.004,0.35449 0.009,0.64453 0.0113,0.64453 0.002,0 0.0317,-0.0472 0.066,-0.10478 z m -16.780051,4.19111 c -0.490826,-0.2673 -1.09546,-1.29961 -1.131287,-1.93148 -0.02078,-0.36653 0.06469,-0.50439 0.623077,-1.00508 0.681725,-0.61127 0.981735,-1.03668 1.034542,-1.46694 0.01693,-0.13794 0.01722,-0.31783 5.07e-4,-0.31783 -0.007,0 -0.0127,-0.006 -0.0127,-0.0138 0,-0.0183 -0.07932,-0.19169 -0.156356,-0.34182 -0.120624,-0.23509 -0.29625,-0.46998 -0.694309,-0.92862 -0.273934,-0.31561 -0.32965,-0.37729 -0.681299,-0.75417 -0.08471,-0.0908 -0.179006,-0.19343 -0.20955,-0.22811 -0.03055,-0.0347 -0.08411,-0.0947 -0.119035,-0.13336 -0.58187,-0.6443 -0.908223,-1.23989 -1.005814,-1.83559 -0.01967,-0.12007 -0.02288,-0.22091 -0.02286,-0.71755 2.9e-5,-0.55808 0.0073,-0.70765 0.04547,-0.93345 0.0071,-0.0419 0.0187,-0.11049 0.02582,-0.1524 0.06807,-0.40084 0.185955,-0.724 0.372939,-1.02235 0.344577,-0.54981 0.824955,-1.23208 1.225051,-1.7399 0.05778,-0.0734 0.131597,-0.1672 0.164028,-0.20857 0.715213,-0.9123 1.408498,-1.59364 1.988105,-1.95384 0.799912,-0.49712 1.007096,-0.3799 1.016146,0.57491 0.0089,0.93397 -0.04542,1.27536 -0.263977,1.66058 -0.274692,0.48415 -0.504581,0.59618 -0.572549,0.27902 -0.01313,-0.0613 -0.09004,-0.13378 -0.151729,-0.14303 -0.591376,-0.0887 -2.810863,2.47666 -3.043973,3.5183 -0.01944,0.0869 -0.003,0.10638 0.22992,0.27267 0.871286,0.62206 1.904106,1.79537 2.213916,2.51506 0.01955,0.0454 0.04068,0.094 0.04697,0.10795 0.04196,0.0932 0.211252,0.54433 0.271641,0.7239 0.03993,0.11874 0.07759,0.22733 0.08367,0.2413 0.06794,0.15598 0.212484,0.67532 0.272174,0.9779 0.144466,0.73232 0.07387,2.16713 -0.140457,2.85455 -0.360818,1.15728 -1.104376,2.26713 -1.408085,2.10173 z"
       id="path1"
       inkscape:label="speed" /></g></svg>
